<svg xmlns="http://www.w3.org/2000/svg" fill="none" viewBox="0 0 160 160"><defs/><path fill="#BDE5EC" d="M80.6503 141.398C114.2 141.398 141.398 114.201 141.398 80.6504C141.398 47.1002 114.2 19.9024 80.6503 19.9024C47.1001 19.9024 19.9023 47.1002 19.9023 80.6504C19.9023 114.201 47.1001 141.398 80.6503 141.398Z"/><path fill="#F7F7EB" d="M80.6505 126.179C105.795 126.179 126.179 105.795 126.179 80.6504C126.179 55.5057 105.795 35.1219 80.6505 35.1219C55.5059 35.1219 35.1221 55.5057 35.1221 80.6504C35.1221 105.795 55.5059 126.179 80.6505 126.179Z"/><path fill="#E44450" fill-rule="evenodd" d="M88.065 3.38211C87.9349 2.73171 87.2845 2.0813 85.4634 1.43089C82.4715 0.390243 79.2195 0.390242 75.8374 1.30081C74.0162 1.95122 73.3658 2.60162 73.2357 3.25203C73.2357 3.90244 73.626 4.55284 74.2764 5.20325C74.4932 5.42005 74.7244 5.63685 74.9557 5.85366C75.4182 6.28726 75.8807 6.72087 76.2276 7.15447C76.6439 7.6748 76.7271 8.19512 76.8104 8.71545C76.8312 8.84553 76.852 8.97561 76.878 9.10569C77.3983 11.5772 77.7886 14.1789 78.1788 16.7805C78.5691 19.252 78.8292 21.8537 78.9593 24.4553C79.0894 26.9268 79.0894 29.5285 78.9593 32.1301V32.3902C79.0894 33.3008 79.8699 34.0813 80.7805 33.9512C81.691 33.8211 82.4715 33.0406 82.3414 32.1301C82.0813 29.6585 82.2113 27.0569 82.3414 24.4553C82.4715 21.9837 82.7317 19.3821 83.1219 16.7805C83.1742 16.4492 83.2265 16.1157 83.2791 15.7801L83.2809 15.7687L83.281 15.7683C83.6204 13.6034 83.973 11.3546 84.4227 9.10569C84.4479 8.97967 84.4683 8.85365 84.4884 8.72858C84.5723 8.20813 84.6536 7.70406 85.0731 7.28455C85.3333 6.85095 85.8247 6.41735 86.3161 5.98374C86.5618 5.76694 86.8076 5.55014 87.0244 5.33333C87.8048 4.68293 88.065 4.03252 88.065 3.38211ZM156.618 88.065C157.268 87.935 157.919 87.2846 158.569 85.4634C159.61 82.4715 159.61 79.2195 158.569 75.8374C157.919 74.0163 157.268 73.3659 156.618 73.2358C155.967 73.2358 155.317 73.626 154.667 74.2764C154.45 74.4932 154.233 74.7245 154.016 74.9557C153.583 75.4182 153.149 75.8808 152.715 76.2276C152.195 76.6439 151.675 76.7271 151.154 76.8104C151.024 76.8312 150.894 76.852 150.764 76.878C148.293 77.3984 145.691 77.7886 143.089 78.1789C140.618 78.5691 138.016 78.8293 135.415 78.9594C132.943 79.0894 130.341 79.0894 127.74 78.9594H127.48C126.569 79.0894 125.789 79.8699 125.919 80.7805C126.049 81.6911 126.829 82.4715 127.74 82.3415C130.211 82.0813 132.813 82.2114 135.415 82.3415C137.886 82.4715 140.488 82.7317 143.089 83.1219C143.42 83.1741 143.753 83.2263 144.087 83.2788L144.101 83.2809L144.101 83.281L144.102 83.281L144.103 83.2813L144.104 83.2814C146.268 83.6207 148.516 83.9732 150.764 84.4228C150.894 84.4488 151.024 84.4696 151.154 84.4904C151.675 84.5737 152.195 84.6569 152.715 85.0732C153.149 85.3333 153.583 85.8247 154.016 86.3162C154.233 86.5619 154.45 86.8076 154.667 87.0244C155.317 87.8049 155.967 88.065 156.618 88.065ZM74.5366 158.569C72.7154 157.919 72.065 157.268 71.9349 156.618C71.9349 155.967 72.1951 155.317 72.9756 154.667C73.1924 154.45 73.4381 154.233 73.6838 154.016C74.1752 153.583 74.6666 153.149 74.9268 152.715C75.3431 152.195 75.4263 151.675 75.5096 151.154C75.5304 151.024 75.5512 150.894 75.5772 150.764C76.027 148.515 76.3796 146.266 76.719 144.101L76.719 144.101C76.7722 143.762 76.8251 143.424 76.878 143.089C77.2683 140.488 77.5284 137.886 77.6585 135.415C77.7886 132.813 77.9187 130.211 77.6585 127.74C77.5284 126.829 78.3089 126.049 79.2195 125.919C80.1301 125.789 80.9105 126.569 81.0406 127.48V127.74C80.9105 130.341 80.9105 132.943 81.0406 135.415C81.1707 138.016 81.4309 140.618 81.8211 143.089C82.2113 145.691 82.6016 148.293 83.1219 150.764C83.1479 150.894 83.1687 151.024 83.1896 151.154C83.2728 151.675 83.3561 152.195 83.7723 152.715C84.1192 153.149 84.5817 153.583 85.0442 154.016C85.2755 154.233 85.5067 154.45 85.7235 154.667C86.374 155.317 86.7642 155.967 86.7642 156.618C86.6341 157.268 85.9837 157.919 84.1626 158.569C80.7805 159.61 77.5284 159.61 74.5366 158.569ZM3.38208 71.935C2.73168 72.065 2.08127 72.7154 1.43086 74.5366C0.390212 77.5285 0.390212 80.7805 1.30078 84.1626C1.95119 85.9837 2.60159 86.6341 3.252 86.7642C3.90241 86.7642 4.55281 86.374 5.20322 85.7236C5.42003 85.5068 5.63683 85.2755 5.85364 85.0443C6.28724 84.5817 6.72084 84.1192 7.15444 83.7724C7.67476 83.3561 8.19509 83.2728 8.71542 83.1896C8.8455 83.1688 8.97558 83.148 9.10566 83.1219C11.5772 82.6016 14.1788 82.2114 16.7805 81.8211C19.252 81.4309 21.8536 81.1707 24.4553 81.0406C26.9268 80.9106 29.5284 80.9106 32.13 81.0406H32.3902C33.3008 80.9106 34.0813 80.1301 33.9512 79.2195C33.8211 78.3089 33.0406 77.5285 32.13 77.6585C29.6585 77.9187 27.0569 77.7886 24.4553 77.6585C21.9837 77.5285 19.3821 77.2683 16.7805 76.8781C16.4455 76.8252 16.1082 76.7723 15.7688 76.7191C13.6038 76.3796 11.3547 76.027 9.10566 75.5772C8.97964 75.552 8.85362 75.5317 8.72855 75.5115C8.2081 75.4276 7.70403 75.3463 7.28452 74.9268C6.85092 74.6667 6.41731 74.1752 5.98371 73.6838C5.76691 73.4381 5.5501 73.1924 5.3333 72.9756C4.6829 72.1951 4.03249 71.935 3.38208 71.935ZM45.3983 9.23577C47.3496 8.84553 48.2601 9.10569 48.6504 9.62601C49.0406 10.1463 49.0406 10.9268 48.7805 11.8374C48.6937 12.1409 48.5926 12.4444 48.4914 12.748C48.289 13.355 48.0867 13.9621 48 14.5691C47.9132 15.0894 48.0578 15.4941 48.2023 15.8988C48.2746 16.1012 48.3469 16.3035 48.3902 16.5203L48.3902 16.5204C49.3008 18.9919 50.2114 21.4634 51.1219 23.8049C51.3182 24.2466 51.5146 24.693 51.7118 25.1413L51.7133 25.1449L51.7142 25.1469L51.7148 25.1483L51.7149 25.1484C52.562 27.0744 53.4253 29.0373 54.374 30.8293C55.5447 33.1707 56.7154 35.3821 58.2764 37.4634C58.7967 38.2439 58.5366 39.2845 57.8861 39.8049C57.1057 40.3252 56.065 40.065 55.5447 39.4146C55.5447 39.3496 55.5122 39.3171 55.4796 39.2845C55.4471 39.252 55.4146 39.2195 55.4146 39.1545C54.2439 36.813 52.9431 34.6016 51.5122 32.5203C50.0813 30.3089 48.6504 28.2276 46.9593 26.2764C45.8851 24.8441 44.7493 23.4735 43.5943 22.0796C43.0709 21.448 42.5436 20.8116 42.0162 20.1626C41.626 19.6423 41.2357 19.122 40.4553 18.8618C40.0343 18.7215 39.5376 18.619 39.0265 18.5135L39.0264 18.5135C38.5899 18.4234 38.1429 18.3312 37.7235 18.2114C36.813 17.9512 36.1626 17.561 35.9024 17.0406C35.6422 16.3902 35.9024 15.6098 37.2032 14.0488C39.4146 11.4472 42.4065 9.88618 45.3983 9.23577ZM150.764 45.3984C150.114 42.4065 148.553 39.4146 145.951 37.2033C144.39 35.9024 143.61 35.6423 142.959 35.9024C142.439 36.1626 142.049 36.813 141.789 37.7236C141.669 38.143 141.577 38.59 141.486 39.0265L141.486 39.0267C141.381 39.5378 141.278 40.0344 141.138 40.4553C140.878 41.2358 140.358 41.626 139.837 42.0163C139.189 42.5426 138.554 43.069 137.924 43.5915L137.923 43.592L137.923 43.5925L137.922 43.593L137.921 43.5934L137.921 43.5939L137.92 43.5944C136.526 44.7494 135.156 45.8852 133.724 46.9594C131.772 48.6504 129.691 50.0813 127.48 51.5122C125.398 52.9431 123.187 54.2439 120.845 55.4146C120.78 55.4146 120.748 55.4472 120.715 55.4797C120.683 55.5122 120.65 55.5447 120.585 55.5447C119.935 56.065 119.675 57.1057 120.195 57.8862C120.715 58.5366 121.756 58.7967 122.537 58.2764C124.618 56.7154 126.829 55.5447 129.171 54.374C130.963 53.4253 132.925 52.562 134.851 51.715L134.852 51.7149C135.302 51.5166 135.751 51.3193 136.195 51.1219C138.536 50.2115 141.008 49.301 143.479 48.3906L143.48 48.3902C143.696 48.3469 143.899 48.2746 144.101 48.2024C144.506 48.0578 144.911 47.9133 145.431 48C146.038 48.0867 146.645 48.2891 147.252 48.4914C147.556 48.5926 147.859 48.6938 148.163 48.7805C149.073 49.0406 149.854 49.0406 150.374 48.6504C150.894 48.2602 151.154 47.3496 150.764 45.3984ZM122.797 145.951C120.585 148.553 117.593 150.114 114.602 150.764C112.65 151.154 111.74 150.894 111.35 150.374C110.959 149.854 110.959 149.073 111.219 148.163C111.306 147.859 111.407 147.556 111.509 147.252C111.711 146.645 111.913 146.038 112 145.431C112.087 144.911 111.942 144.506 111.798 144.101C111.725 143.899 111.653 143.696 111.61 143.48L111.609 143.479C110.699 141.008 109.788 138.536 108.878 136.195C108.681 135.751 108.483 135.302 108.285 134.852C107.438 132.926 106.575 130.963 105.626 129.171C104.455 126.829 103.285 124.618 101.724 122.537C101.203 121.756 101.463 120.715 102.114 120.195C102.764 119.675 103.935 119.935 104.455 120.585C104.455 120.65 104.488 120.683 104.52 120.715C104.553 120.748 104.585 120.78 104.585 120.846C105.756 123.187 107.057 125.398 108.488 127.48C109.919 129.691 111.35 131.772 113.041 133.724C114.114 135.155 115.249 136.524 116.403 137.917L116.404 137.918L116.405 137.919L116.406 137.92L116.407 137.921C116.93 138.553 117.457 139.189 117.984 139.837C118.374 140.358 118.764 140.878 119.545 141.138C119.966 141.279 120.462 141.381 120.973 141.486L120.973 141.486C121.41 141.577 121.857 141.669 122.276 141.789C123.187 142.049 123.837 142.439 124.098 142.959C124.358 143.61 124.098 144.39 122.797 145.951ZM9.62598 111.35C9.10566 111.74 8.8455 112.65 9.23574 114.602C9.88615 117.593 11.4471 120.585 14.0487 122.797C15.6097 124.098 16.3902 124.358 17.0406 124.098C17.5609 123.837 17.9512 123.187 18.2113 122.276C18.3312 121.857 18.4234 121.41 18.5135 120.974L18.5135 120.974C18.6189 120.462 18.7214 119.966 18.8618 119.545C19.1219 118.764 19.6422 118.374 20.1626 117.984C20.8116 117.456 21.448 116.929 22.0796 116.406C23.4735 115.251 24.8441 114.115 26.2764 113.041C28.2276 111.35 30.3089 109.919 32.5203 108.488C34.6016 107.057 36.813 105.756 39.1544 104.585C39.2195 104.585 39.252 104.553 39.2845 104.52C39.317 104.488 39.3496 104.455 39.4146 104.455C40.065 103.935 40.3252 102.764 39.8048 102.114C39.2845 101.463 38.2439 101.203 37.4634 101.724C35.3821 103.285 33.1707 104.455 30.8292 105.626C29.0372 106.575 27.0743 107.438 25.1482 108.285C24.6975 108.483 24.2488 108.681 23.8048 108.878C21.4634 109.789 18.9919 110.699 16.5204 111.61L16.5203 111.61C16.3035 111.653 16.1011 111.725 15.8988 111.798C15.4941 111.942 15.0894 112.087 14.5691 112C13.962 111.913 13.355 111.711 12.7479 111.509C12.4444 111.407 12.1409 111.306 11.8374 111.22C10.9268 110.959 10.1463 110.959 9.62598 111.35ZM14.6992 36.0325C16.13 34.7317 17.0406 34.4715 17.691 34.7317C18.3414 34.9919 18.6016 35.6423 18.8618 36.5528C18.9816 36.9723 19.0738 37.4193 19.1639 37.8558C19.2694 38.3669 19.3718 38.8636 19.5122 39.2846C19.6783 39.7829 20.0034 40.0691 20.3184 40.3463C20.4968 40.5033 20.6719 40.6574 20.813 40.8455C22.7642 42.5366 24.8455 44.2276 26.9268 45.7886C29.0081 47.3496 31.0894 48.9106 33.1707 50.3415C35.3821 51.7724 37.4634 53.0732 39.8048 54.2439C40.5853 54.6341 40.9756 55.6748 40.5853 56.4553C40.1951 57.2358 39.1544 57.626 38.374 57.2358C38.3089 57.2358 38.2764 57.2033 38.2439 57.1707C38.2113 57.1382 38.1788 57.1057 38.1138 57.1057C36.0325 55.6748 33.691 54.374 31.4796 53.2033C29.1382 52.0326 26.7969 50.9919 24.4555 49.9513L24.4553 49.9512C22.1138 48.9106 19.6422 48 17.1707 47.2195C17.1079 47.1944 17.0464 47.1693 16.9856 47.1445L16.9856 47.1445L16.9856 47.1445L16.9856 47.1445C16.4174 46.9127 15.9246 46.7118 15.2195 46.8293C14.6992 46.916 14.0632 47.1183 13.4272 47.3207C13.1093 47.4219 12.7913 47.523 12.4878 47.6098C11.5772 47.8699 10.7967 47.8699 10.2764 47.4797C9.75607 47.0894 9.4959 46.1789 9.88615 44.2276C10.6666 40.8455 12.3577 37.9837 14.6992 36.0325ZM125.268 17.6911C125.528 17.0406 125.268 16.1301 123.967 14.6992C122.016 12.3577 119.154 10.6667 115.772 9.88618C113.821 9.49593 112.911 9.7561 112.52 10.2764C112.13 10.7967 112.13 11.5772 112.39 12.4878C112.477 12.7913 112.578 13.1093 112.679 13.4273C112.882 14.0632 113.084 14.6992 113.171 15.2195C113.288 15.9246 113.087 16.4174 112.855 16.9856C112.831 17.0463 112.806 17.1079 112.78 17.1707C112 19.6423 111.089 22.1138 110.049 24.4553C109.008 26.7967 107.967 29.1382 106.797 31.4797C105.626 33.6911 104.325 36.0325 102.894 38.1138C102.894 38.1789 102.862 38.2114 102.829 38.2439C102.797 38.2764 102.764 38.3089 102.764 38.374C102.374 39.1545 102.764 40.1951 103.545 40.5854C104.325 40.9756 105.366 40.5854 105.756 39.8049C106.927 37.4634 108.228 35.3821 109.659 33.1707C111.089 31.0896 112.65 29.0084 114.211 26.9272L114.211 26.9268C115.772 24.8455 117.463 22.7642 119.154 20.813C119.343 20.6719 119.497 20.4968 119.654 20.3185C119.931 20.0035 120.217 19.6783 120.715 19.5122C121.136 19.3719 121.633 19.2694 122.144 19.1639C122.581 19.0739 123.028 18.9816 123.447 18.8618C124.358 18.6016 125.008 18.3415 125.268 17.6911ZM145.301 123.967C143.87 125.268 142.959 125.528 142.309 125.268C141.659 125.008 141.398 124.358 141.138 123.447C141.018 123.028 140.926 122.581 140.836 122.144L140.836 122.144C140.731 121.633 140.628 121.136 140.488 120.715C140.322 120.217 139.996 119.931 139.682 119.654C139.503 119.497 139.328 119.343 139.187 119.154C137.236 117.463 135.154 115.772 133.073 114.211L133.073 114.211C130.992 112.65 128.91 111.089 126.829 109.659C124.618 108.228 122.537 106.927 120.195 105.756C119.415 105.366 119.024 104.325 119.415 103.545C119.805 102.764 120.845 102.374 121.626 102.764C121.691 102.764 121.724 102.797 121.756 102.829C121.789 102.862 121.821 102.894 121.886 102.894C123.967 104.325 126.309 105.626 128.52 106.797C130.862 107.967 133.203 109.008 135.545 110.049C137.886 111.089 140.358 112 142.829 112.78C142.892 112.806 142.954 112.831 143.014 112.856C143.583 113.087 144.075 113.288 144.78 113.171C145.301 113.084 145.937 112.882 146.573 112.679C146.891 112.578 147.209 112.477 147.512 112.39C148.423 112.13 149.203 112.13 149.724 112.52C150.244 112.911 150.504 113.821 150.114 115.772C149.333 119.154 147.642 122.016 145.301 123.967ZM34.7317 142.309C34.4715 142.959 34.7317 143.87 36.0325 145.301C37.9837 147.642 40.8455 149.333 44.2276 150.114C46.1788 150.504 47.0894 150.244 47.4796 149.724C47.8699 149.203 47.8699 148.423 47.6097 147.512C47.523 147.209 47.4218 146.891 47.3207 146.573C47.1183 145.937 46.916 145.301 46.8292 144.78C46.7117 144.075 46.9127 143.583 47.1445 143.014C47.1692 142.954 47.1944 142.892 47.2195 142.829C48 140.358 48.9105 137.886 49.9512 135.545L49.9513 135.545C50.9919 133.203 52.0325 130.862 53.2032 128.52C54.374 126.309 55.6748 123.967 57.1057 121.886C57.1057 121.821 57.1382 121.789 57.1707 121.756C57.2032 121.724 57.2357 121.691 57.2357 121.626C57.626 120.846 57.2357 119.805 56.4553 119.415C55.6748 119.024 54.6341 119.415 54.2439 120.195C53.0731 122.537 51.7723 124.618 50.3414 126.829C48.9105 128.911 47.3496 130.992 45.7886 133.073C44.2276 135.154 42.5366 137.236 40.8455 139.187C40.6574 139.328 40.5033 139.503 40.3463 139.682C40.069 139.997 39.7828 140.322 39.2845 140.488C38.8635 140.628 38.3668 140.731 37.8557 140.836C37.4192 140.926 36.9722 141.018 36.5528 141.138C35.6422 141.398 34.9918 141.659 34.7317 142.309Z" clip-rule="evenodd"/><path fill="#2652E4" fill-rule="evenodd" d="M65.5608 31.3496C65.821 32.5203 65.9511 33.9512 65.9511 35.252C65.9511 35.6423 65.9511 36.0325 66.0812 36.2927C66.7316 37.3333 67.9023 37.5935 68.9429 37.0732C69.9836 36.4228 70.2438 35.252 69.7234 34.2114C69.073 33.0407 68.6828 31.8699 68.2925 30.5691C67.9023 29.2683 67.6421 27.9675 67.512 26.6667C67.4249 25.7948 67.4546 24.8645 67.4836 23.9541V23.954V23.954V23.954V23.9539V23.9538V23.9537V23.9536V23.9535C67.4979 23.5058 67.512 23.0629 67.512 22.6342C67.6421 21.9837 67.6421 21.3333 67.512 20.6829C67.4863 20.5542 67.4758 20.4256 67.4656 20.2989C67.4238 19.7853 67.3848 19.3049 66.3413 18.9919C64.9104 18.6016 63.2194 18.8618 62.0486 20.0325C61.2405 20.8406 61.457 21.3414 61.6978 21.8985C61.7283 21.9691 61.7592 22.0406 61.7885 22.1138C62.0486 22.7642 62.3088 23.2846 62.699 23.935C62.9209 24.3787 63.1579 24.7921 63.3893 25.1959C63.8365 25.9759 64.263 26.7201 64.5202 27.5772C64.9104 28.748 65.3007 30.0488 65.5608 31.3496ZM92.3576 30.8293C91.9673 32 91.447 33.3008 90.7966 34.4715C90.5364 34.8618 90.4064 35.252 90.5364 35.6423C90.5364 36.813 91.447 37.7236 92.6177 37.7236C93.7885 37.7236 94.699 36.813 94.699 35.6423C94.569 34.3415 94.8291 33.0407 95.0893 31.7398C95.2086 31.342 95.3158 30.9441 95.422 30.5499C95.663 29.6555 95.8988 28.7801 96.26 27.9675C96.6069 27.187 97.0694 26.4065 97.5319 25.626C97.7632 25.2358 97.9944 24.8455 98.2112 24.4553C98.6015 23.8049 98.8616 23.2846 99.1218 22.6342C99.1501 22.4927 99.1968 22.3574 99.2433 22.2229C99.4105 21.7389 99.5742 21.2654 98.8616 20.5529C97.821 19.3821 96.1299 18.9919 94.569 19.3821C93.5891 19.7088 93.5205 20.2176 93.4479 20.7562C93.4337 20.8611 93.4194 20.9672 93.3982 21.0732C93.2681 21.7236 93.2681 22.374 93.2681 23.0244C93.3982 24.3252 93.3982 25.7561 93.2681 27.0569C93.008 28.3577 92.7478 29.5285 92.3576 30.8293ZM67.8974 129.562C68.3055 128.515 68.6846 127.542 69.3332 126.569C69.4633 126.309 69.5933 125.919 69.4633 125.268C69.4633 124.098 68.5527 123.187 67.382 123.187C66.2112 123.187 65.3007 124.098 65.3007 125.268C65.3007 126.569 65.0405 127.87 64.7803 129.171C64.5202 130.472 64.1299 131.772 63.6096 132.943C63.0893 134.114 62.3088 135.285 61.5284 136.455L61.5283 136.455C61.3982 136.78 61.2356 137.073 61.073 137.366C60.9104 137.659 60.7478 137.951 60.6177 138.276C60.5745 138.384 60.5242 138.489 60.4744 138.592L60.4743 138.592L60.4743 138.592L60.4743 138.592L60.4742 138.592L60.4742 138.592L60.4742 138.592C60.2241 139.111 59.9887 139.599 60.7478 140.358C61.7885 141.528 63.4795 142.049 65.0405 141.659C66.1454 141.327 66.218 140.808 66.2945 140.26C66.308 140.163 66.3217 140.065 66.3413 139.967C66.4714 139.317 66.4714 138.667 66.4714 138.016C66.4714 137.696 66.4635 137.368 66.4555 137.036L66.4554 137.034L66.4554 137.034V137.034V137.034V137.033V137.033V137.033V137.033V137.033C66.431 136.017 66.4056 134.963 66.6015 133.984C66.8123 132.93 67.1085 131.961 67.4209 130.94C67.494 130.7 67.5681 130.458 67.6421 130.211C67.73 129.992 67.8141 129.776 67.8971 129.563L67.8974 129.562ZM125.788 91.3171C126.959 91.9675 128.26 92.4878 129.431 92.8781C130.732 93.2683 131.902 93.5285 133.203 93.7886C134.504 93.9187 135.935 93.9187 137.236 93.7886C137.886 93.7886 138.536 93.7886 139.187 93.9187C139.293 93.9399 139.399 93.9542 139.504 93.9683C140.042 94.0409 140.551 94.1095 140.878 95.0894C141.268 96.6504 140.878 98.3415 139.707 99.3821C138.995 100.095 138.521 99.931 138.037 99.7638C137.903 99.7173 137.767 99.6706 137.626 99.6423C136.975 99.3821 136.455 99.122 135.805 98.7317C135.414 98.5149 135.024 98.2836 134.634 98.0524C133.853 97.5899 133.073 97.1274 132.293 96.7805C131.48 96.4193 130.605 96.1835 129.71 95.9425C129.316 95.8363 128.918 95.7291 128.52 95.6098L128.52 95.6097C127.219 95.3496 125.919 95.0894 124.618 95.2195C123.447 95.2195 122.536 94.3089 122.536 93.1382C122.536 91.9675 123.447 91.0569 124.618 91.0569C125.138 91.0569 125.528 91.187 125.788 91.3171ZM30.8279 68.5479C31.8753 68.9561 32.8482 69.3352 33.821 69.9837C34.0812 70.1138 34.4714 70.2439 34.8616 70.2439C36.0324 70.2439 37.2031 69.2033 37.2031 68.0325C37.2031 66.8618 36.2925 65.9512 35.1218 65.9512C33.821 65.9512 32.5202 65.6911 31.2194 65.4309C29.9186 65.1707 28.6177 64.7805 27.447 64.2602C26.2763 63.7398 25.1055 62.9594 23.9348 62.1789C23.6096 62.0488 23.3169 61.8862 23.0242 61.7236C22.7316 61.561 22.4389 61.3984 22.1137 61.2683C22.0056 61.225 21.901 61.1746 21.7977 61.1248L21.7976 61.1247C21.2794 60.8747 20.7915 60.6392 20.0324 61.3984C18.8616 62.439 18.3413 64.1301 18.7316 65.6911C19.063 66.796 19.5822 66.8685 20.1296 66.945C20.2267 66.9586 20.3247 66.9723 20.4226 66.9919C21.073 67.122 21.7234 67.122 22.3738 67.122C22.6946 67.122 23.0233 67.114 23.356 67.106H23.3562H23.3564H23.3565H23.3567H23.3569H23.3571H23.3572H23.3574H23.3575C24.3735 67.0815 25.4268 67.0561 26.4064 67.252C27.4603 67.4628 28.4289 67.759 29.4505 68.0714L29.4506 68.0715C29.6898 68.1446 29.9319 68.2186 30.1787 68.2927C30.3986 68.3806 30.6148 68.4649 30.8279 68.5479ZM125.138 66.8618C126.439 66.8618 127.74 66.6016 129.041 66.3415C130.341 66.0813 131.512 65.6911 132.813 65.1707C133.593 64.8239 134.374 64.3613 135.154 63.8988C135.545 63.6676 135.935 63.4363 136.325 63.2195C136.845 62.8293 137.496 62.5691 138.146 62.3089C138.202 62.2868 138.256 62.2637 138.31 62.2405L138.362 62.2182C138.919 61.9774 139.419 61.761 140.227 62.5691C141.398 63.7398 141.788 65.4309 141.398 66.8618C141.067 67.9667 140.548 68.0393 140 68.1158C139.903 68.1293 139.805 68.143 139.707 68.1626C139.057 68.2927 138.406 68.2927 137.756 68.2927C137.435 68.2927 137.107 68.2848 136.774 68.2767L136.774 68.2767H136.773H136.773H136.773H136.773H136.773H136.772H136.772C135.756 68.2522 134.703 68.2269 133.723 68.4228C132.423 68.6829 131.122 68.9431 129.951 69.3333C128.65 69.7236 127.48 70.2439 126.309 70.8943C125.268 71.5447 124.097 71.1545 123.447 70.2439C122.797 69.2033 123.187 68.0325 124.097 67.3821C124.358 66.9919 124.748 66.8618 125.138 66.8618ZM30.8291 94.8293C31.9999 94.5691 33.4307 94.439 34.7316 94.439C34.8485 94.439 34.9917 94.4127 35.1494 94.3838C35.3425 94.3484 35.5574 94.3089 35.7722 94.3089C36.8129 93.6585 37.073 92.4878 36.5527 91.4472C35.9023 90.4065 34.7316 90.1463 33.6909 90.6667C32.5202 91.3171 31.3494 91.7073 30.0486 92.0976C28.7478 92.4878 27.447 92.748 26.1462 92.8781C25.2743 92.9652 24.3439 92.9355 23.4334 92.9065L23.4326 92.9065H23.4325H23.4324H23.4322H23.4321H23.432C22.9846 92.8922 22.5421 92.8781 22.1137 92.8781C21.4633 92.748 20.8129 92.748 20.1625 92.8781C20.0338 92.9038 19.9051 92.9142 19.7785 92.9245H19.7784C19.2649 92.9663 18.7844 93.0053 18.4714 94.0488C18.0812 95.4797 18.3413 97.1707 19.512 98.3415C20.3202 99.1496 20.8209 98.9331 21.378 98.6924L21.3785 98.6921L21.379 98.6919L21.3797 98.6916L21.3798 98.6916L21.38 98.6915C21.4499 98.6613 21.5208 98.6306 21.5933 98.6016C22.2438 98.3415 22.7641 98.0813 23.4145 97.6911C23.8582 97.4692 24.2716 97.2322 24.6754 97.0008C25.4555 96.5536 26.1996 96.1271 27.0568 95.8699C28.2275 95.4797 29.5283 95.0894 30.8291 94.8293ZM93.3982 125.659C93.3982 126.959 93.6584 128.26 93.9185 129.561L93.9186 129.561C94.1787 130.862 94.569 132.033 95.0893 133.333C95.4362 134.114 95.8987 134.894 96.3612 135.675C96.5924 136.065 96.8237 136.455 97.0405 136.846C97.4307 137.366 97.6909 138.016 97.9511 138.667L97.9658 138.703C97.97 138.713 97.9743 138.724 97.9786 138.734C97.9841 138.747 97.9896 138.76 97.9951 138.773C98.0105 138.81 98.0261 138.846 98.0415 138.881L98.0418 138.882C98.2826 139.439 98.499 139.94 97.6909 140.748C96.5202 141.919 94.8291 142.309 93.3982 141.919C92.2933 141.587 92.2208 141.068 92.1443 140.521V140.521C92.1307 140.424 92.117 140.326 92.0974 140.228C91.9673 139.577 91.9673 138.927 91.9673 138.276C91.9673 137.955 91.9753 137.626 91.9833 137.293C92.0078 136.277 92.0332 135.223 91.8372 134.244C91.5771 132.943 91.3169 131.642 90.9267 130.472C90.5364 129.171 90.0161 128 89.3657 126.829C88.7153 125.789 89.1055 124.618 90.0161 123.967C90.9267 123.317 92.2275 123.707 92.8779 124.618C93.3982 125.008 93.3982 125.268 93.3982 125.659ZM112.26 46.0488C113.375 45.4292 114.373 44.5734 115.252 43.819L115.382 43.7073C116.293 42.7968 117.203 41.8862 118.114 40.8455C118.733 40.0199 119.27 39.0305 119.791 38.0722L119.791 38.072C119.926 37.8225 120.061 37.5752 120.195 37.3333C120.311 37.1392 120.416 36.9567 120.517 36.7823C120.752 36.3724 120.962 36.0073 121.236 35.6423C121.281 35.5817 121.325 35.5193 121.369 35.4569C121.701 34.9828 122.037 34.5018 123.187 34.7317C124.748 35.122 125.919 36.4228 126.309 37.8537C126.643 38.9686 126.118 39.3191 125.633 39.6422C125.552 39.696 125.473 39.7491 125.398 39.8049C124.878 40.1951 124.358 40.5854 123.707 40.8455C123.465 40.9799 123.218 41.1142 122.969 41.2497C122.01 41.7702 121.021 42.3076 120.195 42.9268C119.154 43.7073 118.244 44.6179 117.333 45.6585C116.423 46.6992 115.642 47.6098 114.992 48.9106C114.471 49.9512 113.171 50.2114 112.13 49.6911C111.089 49.1707 110.829 47.8699 111.349 46.8293C111.48 46.6992 111.642 46.5691 111.805 46.439C111.967 46.3089 112.13 46.1789 112.26 46.0488ZM44.4877 117.463C45.5283 116.553 46.569 115.772 47.7397 115.122C47.9999 114.992 48.26 114.732 48.5202 114.341C49.0405 113.301 48.7803 112 47.7397 111.48C46.699 110.959 45.3982 111.22 44.8779 112.26C44.2275 113.431 43.3169 114.472 42.4064 115.382C42.0703 115.676 41.7478 115.97 41.4302 116.26C40.7641 116.867 40.1191 117.455 39.4145 117.984C38.7207 118.504 37.9113 118.909 37.1019 119.313C36.6972 119.516 36.2925 119.718 35.9023 119.935C35.382 120.195 34.7316 120.585 34.2112 120.976C34.1038 121.083 33.9909 121.174 33.8816 121.262C33.4612 121.599 33.0942 121.894 33.3007 122.927C33.6909 124.488 34.8616 125.789 36.4226 126.179C37.5123 126.397 37.8717 125.976 38.1891 125.604C38.2506 125.532 38.3105 125.462 38.3738 125.398C38.696 125.076 38.9184 124.704 39.1338 124.344C39.2662 124.122 39.396 123.905 39.5446 123.707C39.824 123.288 40.07 122.869 40.3125 122.456C40.7476 121.715 41.1713 120.993 41.756 120.325C42.5364 119.285 43.447 118.374 44.4877 117.463ZM114.211 112.911C114.831 114.026 115.687 115.023 116.441 115.902L116.553 116.033C117.463 116.943 118.374 117.854 119.414 118.764C120.24 119.384 121.23 119.921 122.188 120.441L122.188 120.441C122.438 120.577 122.685 120.711 122.927 120.846C123.121 120.962 123.303 121.067 123.478 121.167L123.478 121.167C123.888 121.403 124.253 121.612 124.618 121.886C124.678 121.932 124.741 121.975 124.803 122.019C125.277 122.351 125.758 122.688 125.528 123.837C125.138 125.398 123.837 126.569 122.406 126.959C121.291 127.294 120.941 126.768 120.618 126.284C120.564 126.203 120.511 126.123 120.455 126.049C120.065 125.528 119.675 125.008 119.414 124.358C119.28 124.116 119.146 123.869 119.01 123.619C118.49 122.661 117.952 121.671 117.333 120.846C116.553 119.805 115.642 118.894 114.601 117.984C113.561 117.073 112.65 116.293 111.349 115.642C110.309 115.122 110.049 113.821 110.569 112.78C111.089 111.74 112.39 111.48 113.431 112C113.821 112.26 114.081 112.52 114.211 112.911ZM42.9267 45.0081C43.8372 46.0488 44.6177 47.0894 45.2681 48.2602C45.3982 48.6504 45.6584 48.9106 46.0486 49.0407C47.0893 49.561 48.3901 49.3008 48.9104 48.2602C49.4307 47.2195 49.1706 45.9187 48.1299 45.3984C46.9592 44.748 45.9186 43.8374 45.008 42.9268C44.7139 42.5908 44.4199 42.2683 44.1302 41.9506C43.5229 41.2845 42.9348 40.6396 42.4064 39.935C41.886 39.2412 41.4813 38.4318 41.0766 37.6224C40.8743 37.2177 40.6719 36.813 40.4551 36.4228C40.195 35.9024 39.8047 35.252 39.4145 34.7317C39.3071 34.6243 39.2163 34.5114 39.1285 34.4021C38.7906 33.9817 38.4956 33.6147 37.4633 33.8211C35.9023 34.2114 34.6015 35.3821 34.2112 36.9431C33.8644 38.0994 34.3397 38.4334 34.8151 38.7674C34.8745 38.8092 34.9339 38.851 34.9917 38.8943C35.3139 39.2165 35.6859 39.4389 36.0461 39.6542C36.2676 39.7867 36.4846 39.9164 36.6828 40.065C37.1019 40.3444 37.5209 40.5905 37.9341 40.833C38.675 41.2681 39.3968 41.6918 40.0649 42.2764C41.1055 43.0569 42.0161 43.9675 42.9267 45.0081Z" clip-rule="evenodd"/><path stroke="#ECC6C3" stroke-linecap="round" stroke-width="5.203" d="M82.862 116.813C84.423 113.171 85.4636 109.268 86.114 105.496C86.6344 101.593 86.6344 97.9512 86.114 94.1789C85.9839 93.2683 86.114 92.748 86.3742 92.6179C86.6344 92.4878 87.1547 92.748 87.8051 93.5285C89.6262 95.8699 91.8376 97.9512 94.1791 99.9024C96.5205 101.854 99.2522 103.415 102.114 104.846C103.935 105.756 105.756 104.195 104.846 102.244C103.675 99.252 102.114 96.5203 100.423 94.0488C99.5124 92.748 98.6018 91.5772 97.6913 90.4065C96.6506 89.2358 95.61 88.1951 94.5693 87.1545C93.2685 85.8537 93.5287 85.2033 95.3498 85.5935C98.3417 86.2439 101.203 86.5041 104.325 86.5041C107.317 86.374 110.569 86.1138 113.561 85.3333C115.512 84.813 115.903 82.4715 114.082 81.561C111.22 80 108.358 78.9593 105.366 78.0488C103.935 77.6585 102.374 77.2683 100.943 77.0081C99.3823 76.748 97.9514 76.6179 96.3904 76.4878C94.5693 76.3577 94.3091 75.5772 96.0002 74.6667C98.7319 73.2358 101.073 71.5447 103.545 69.5935C105.886 67.6423 107.968 65.3008 109.919 62.6992C111.09 61.1382 109.919 59.0569 107.838 59.4472C104.716 60.0976 101.724 61.0081 98.862 62.3089C96.1303 63.4797 93.3986 65.0406 91.0571 66.8618C89.4961 67.9024 88.8457 67.5122 89.6262 65.6911C90.797 62.9593 91.5774 60.0976 92.0978 56.9756C92.6181 53.9837 92.8783 50.7317 92.6181 47.6098C92.6181 46.5691 91.9677 45.9187 91.3173 45.6585C90.5368 45.3984 89.7563 45.6585 89.1059 46.439C88.0652 47.7398 87.1547 48.9106 86.3742 50.2114C85.4636 51.5122 84.8132 52.9431 84.0327 54.2439C82.7319 56.9756 81.6913 59.8374 80.9108 62.6992C80.3904 64.5203 79.61 64.6504 79.0896 62.6992C78.1791 59.8374 77.0083 57.1057 75.4474 54.374C73.8864 51.7724 72.0652 49.1707 69.9839 46.8293C68.6831 45.2683 66.3417 46.0488 66.4717 48.2602C66.4717 49.8211 66.6018 51.3821 66.7319 52.9431C66.862 54.5041 67.2522 56.065 67.5124 57.4959C68.1628 60.4878 69.2035 63.3496 70.5043 65.9512C71.2848 67.6423 70.7644 68.2927 69.0734 67.122C66.6018 65.561 63.8701 64.1301 61.0083 63.0894C58.1465 62.0488 55.0246 61.1382 51.9026 60.748C50.862 60.6179 50.0815 61.0081 49.6913 61.6585C49.301 62.3089 49.4311 63.2195 50.0815 64C54.114 68.813 59.1872 72.5854 64.6506 75.0569C66.3417 75.8374 66.3417 76.6179 64.3904 76.878C61.5287 77.2683 58.5368 77.9187 55.5449 78.8293C52.6831 79.8699 49.8213 81.1707 47.0896 82.8618C46.1791 83.3821 45.9189 84.2927 46.049 84.9431C46.1791 85.7236 46.8295 86.374 47.8701 86.5041C54.114 87.6748 60.3579 87.2846 66.2116 85.7236C67.1222 85.4634 67.7726 85.4634 67.9026 85.8537C68.0327 86.1138 67.9026 86.6341 67.1222 87.2845C61.9189 92.6179 58.1465 99.5122 56.3254 107.447"/></svg>