<svg xmlns="http://www.w3.org/2000/svg" fill="none" viewBox="0 0 96 96"><defs/><path fill="#ECC6C3" d="M64.6498 4.5C49.8748 4.5 37.7998 16.5 37.7998 31.35C37.7998 36.9 39.4498 42 42.2998 46.275L37.7998 59.7L53.5498 55.8C56.9248 57.375 60.6748 58.2 64.6498 58.2C79.4998 58.2 91.4998 46.2 91.4998 31.35C91.4998 16.5 79.4998 4.5 64.6498 4.5Z"/><path fill="#fff" d="M64.5 51.75C75.6838 51.75 84.75 42.6838 84.75 31.5C84.75 20.3162 75.6838 11.25 64.5 11.25C53.3162 11.25 44.25 20.3162 44.25 31.5C44.25 42.6838 53.3162 51.75 64.5 51.75Z"/><path fill="#2652E4" d="M50.7749 72.525C50.5499 73.05 50.2499 73.575 50.0249 74.1C49.4249 75.45 48.8999 75.225 47.2499 75.225C39.8249 75.3 20.9249 56.475 21.1499 49.125C21.2249 47.55 20.9249 47.025 22.2749 46.35C23.0249 45.975 23.7749 45.675 24.5249 45.3C25.4999 44.775 19.9499 18.375 18.8999 18.45C11.5499 18.675 3.8999 24.3 3.8999 39.15C3.8999 59.55 32.4749 92.475 57.2249 92.475C71.2499 92.475 77.0249 85.65 77.8499 78.75C78.0749 77.325 51.3749 71.325 50.7749 72.525Z"/><path fill="#BDE5EC" d="M77.5499 78.6C77.6999 78.6 77.7749 78.675 77.9249 78.75C78.0749 77.25 77.9999 75.825 77.7749 74.4C77.6999 73.8 76.8749 73.2 76.2749 73.05C69.0749 71.325 61.7999 69.675 54.5249 68.1C53.9999 68.025 53.0999 68.475 52.7999 68.925C52.1249 70.05 51.4499 71.25 50.8499 72.525C59.6999 74.475 68.6249 76.5 77.5499 78.6ZM24.5999 45.375C25.5749 44.85 26.5499 44.325 27.5249 43.8C27.9749 43.5 28.4999 42.6 28.3499 42.075C26.7749 34.8 25.1249 27.6 23.3999 20.325C23.2499 19.725 22.6499 18.9 22.0499 18.825C20.9249 18.6 19.7249 18.525 18.5249 18.6C20.6249 27.45 22.6499 36.375 24.5999 45.375Z"/><path stroke="#E44450" stroke-miterlimit="10" stroke-width="8" d="M54 31.5H75M64.5 42V21"/></svg>