<svg xmlns="http://www.w3.org/2000/svg" fill="none" viewBox="0 0 96 96"><defs/><path fill="#F5D3BD" d="M32.3512 58.9864L27.3517 53.5576L30.4629 51.0945C31.8017 50.0347 32.2376 48.1942 31.5163 46.6465V46.6465C31.0902 45.732 30.3079 45.0321 29.3518 44.7099C28.3958 44.3878 27.3495 44.4715 26.4568 44.9416L23.755 46.3641V40.969L18.3599 41.5872L21.9566 30.797L16.5615 11.015H43.537V26.5821L50.7305 33.7756L57.9239 34.3938V39.1707L59.7223 51.7592L67.0452 55.9602L47.1337 72.1594L34.1909 59.2166V59.2166C33.6037 59.5994 32.8259 59.502 32.3512 58.9864Z"/><path fill="#6E3F0D" d="M43.5366 22.9854L34.5448 12.1952V12.1952C33.4327 17.7556 29.4264 22.2938 24.0469 24.0869L21.9563 24.7837L7.56934 26.5821V20.7192C7.56928 15.3316 10.0183 10.2361 14.2253 6.87045L15.4266 5.90945C21.4576 1.08524 29.917 0.718124 36.3432 5.00173V5.00173L45.8794 3.94226C50.1273 3.47008 54.3842 4.74965 57.6677 7.48572V7.48572C61.2484 10.4697 63.3186 14.8899 63.3186 19.5509V19.5509C63.3186 25.3575 61.9667 31.0843 59.3699 36.2778L57.9235 39.1707H55.6756L50.7301 33.7756L43.5366 26.8069V22.9854Z"/><path fill="#6E3F0D" d="M36.3432 35.5744C36.1498 35.5743 35.9577 35.543 35.7743 35.4818L30.3792 33.6834C29.7276 33.4663 29.2566 32.8969 29.1654 32.2161C29.0742 31.5353 29.3788 30.862 29.9503 30.481L35.3454 26.8843C36.1715 26.3398 37.2824 26.5649 37.8313 27.3882C38.3802 28.2114 38.161 29.3235 37.3407 29.8768L35.005 31.4339L36.9117 32.0694C37.7494 32.3477 38.2613 33.1927 38.1199 34.064C37.9786 34.9353 37.2259 35.5752 36.3432 35.5744Z"/><path fill="#0094F6" d="M82.4804 62.0823L74.1088 59.5709L66.9154 55.9741L47.1334 72.1594L34.1905 59.2166L25.553 64.9659L17.1814 67.4774C11.4763 69.189 7.56934 72.6416 7.56934 78.598V93.7398H25.553C25.553 93.7398 74.1088 93.7398 74.1088 93.6692V93.7398H92.0925V75.0013C92.0925 69.0449 88.1855 63.7938 82.4804 62.0823Z"/><path fill="#F5D3BD" d="M7.569 82.95H25.553V93.74000000000001H7.569zM74.109 82.95H92.09299999999999V93.67H74.109z"/><path fill="#8ED2FF" d="M3.44973 54.2155C2.47639 54.2158 1.6795 53.4416 1.65163 52.4687 1.62376 51.4957 2.37502 50.6772 3.34678 50.6217L8.73265 50.307C9.37406 50.2696 9.9867 50.5773 10.3398 51.1141 10.6929 51.6508 10.7327 52.3352 10.4444 52.9094 10.1561 53.4836 9.58335 53.8603 8.94194 53.8977L3.55606 54.2124C3.52054 54.2146 3.48503 54.2155 3.44973 54.2155zM5.56318 61.3512C4.74431 61.3521 4.02824 60.7997 3.82126 60.0074 3.61428 59.2151 3.96866 58.3831 4.68333 57.9833L8.27623 55.9725C9.14243 55.4922 10.2339 55.8027 10.7176 56.667 11.2014 57.5313 10.8952 58.624 10.0328 59.1111L6.4401 61.1219C6.17233 61.2724 5.87032 61.3513 5.56318 61.3512zM8.52527 48.5687C8.28166 48.5686 8.04064 48.5188 7.81694 48.4223L4.12153 46.8366C3.22739 46.4337 2.82091 45.3887 3.2078 44.4875 3.5947 43.5864 4.63228 43.1613 5.54021 43.5321L9.2354 45.1165C10.0207 45.4528 10.4611 46.2952 10.2889 47.132 10.1167 47.9688 9.3796 48.569 8.52527 48.568V48.5687z"/><path fill="#FBB540" d="M14.763 50.579H18.36V54.176H14.763zM20.158 55.974H23.755000000000003V59.571H20.158zM12.965 59.571H16.562V63.168H12.965z"/><path fill="#F5D3BD" d="M50.7305 28.3805H52.5288C55.5085 28.3805 57.9239 30.796 57.9239 33.7756V33.7756C57.9239 36.7552 55.5085 39.1707 52.5288 39.1707H50.7305V28.3805Z"/><path fill="#E8C8B3" d="M47.1337 43.3856V48.7807L34.1909 59.2166 36.3436 61.3693 49.8313 50.5791V43.3856H47.1337V43.3856zM21.956 82.985H25.553V93.705H21.956zM74.109 82.95H77.70599999999999V93.67H74.109z"/><path fill="#000" d="M36.3432 35.5744C37.2259 35.5752 37.9786 34.9353 38.1199 34.064C38.2613 33.1927 37.7494 32.3477 36.9117 32.0694L35.005 31.4339L37.3407 29.8768C38.161 29.3235 38.3802 28.2114 37.8313 27.3882C37.2824 26.5649 36.1715 26.3398 35.3454 26.8843L29.9503 30.481C29.3788 30.862 29.0742 31.5353 29.1654 32.2161C29.2566 32.8969 29.7276 33.4663 30.3792 33.6834L35.7743 35.4818C35.9577 35.543 36.1498 35.5743 36.3432 35.5744Z"/><path fill="#000" fill-rule="evenodd" d="M92.0925 95.5382H7.56941C6.5762 95.5382 5.77105 94.733 5.77105 93.7398V78.598C5.77105 72.3341 9.53795 67.893 16.6628 65.755L24.778 63.3207L30.3653 59.5918L26.0278 54.7758C25.6994 54.4191 25.5289 53.9449 25.555 53.4607C25.5811 52.9765 25.8016 52.5234 26.1665 52.2041L29.2462 49.5104C29.8834 48.9529 30.0154 48.0126 29.5564 47.3012C29.0974 46.5898 28.1862 46.3226 27.4157 46.6734L24.4997 48.0009C23.943 48.2542 23.2958 48.2073 22.7815 47.8763C22.2672 47.5454 21.9564 46.9757 21.9563 46.3641V42.9852L18.5642 43.3737C17.9538 43.4436 17.3499 43.1971 16.9629 42.72C16.5758 42.2428 16.4591 41.6011 16.6534 41.0183L20.0782 30.7451L19.0457 26.96L7.79241 28.3665C7.28059 28.4305 6.76594 28.2716 6.37925 27.9303C5.99256 27.5889 5.77107 27.0979 5.77105 26.5821V20.7192C5.75727 14.7821 8.45748 9.16418 13.1023 5.46617L14.3038 4.5054C20.746 -0.675726 29.7584 -1.22163 36.7789 3.14403L45.6808 2.15493C50.6291 1.6051 55.5773 3.18854 59.2871 6.50894C62.9969 9.82935 65.1171 14.5725 65.1171 19.5512C65.1098 25.6361 63.6933 31.6366 60.9786 37.0823L59.7834 39.4723L61.3745 50.6101L74.8031 57.9015L82.9973 60.3597C89.4631 62.2995 93.891 68.2508 93.8909 75.0013V93.7398C93.8909 94.733 93.0858 95.5382 92.0925 95.5382ZM23.7547 84.748H9.36776V91.9414H23.7547V84.748ZM90.2942 91.8711H75.9072V84.748H90.2942V91.8711ZM15.3487 8.27476C11.5592 11.2919 9.35638 15.8754 9.36776 20.7192V24.545L21.5566 23.0211L23.4784 22.3807C28.2419 20.7861 31.7899 16.767 32.7813 11.8425C32.9172 11.1633 33.4309 10.6225 34.1023 10.4521C34.7736 10.2817 35.4831 10.5119 35.9265 11.044L44.9183 21.8342C45.1876 22.1574 45.335 22.5647 45.3351 22.9854V25.8374L48.9318 29.4341V28.3805C48.9318 27.3873 49.7369 26.5821 50.7301 26.5821H52.5285C55.6796 26.5859 58.4629 28.6366 59.4001 31.6452C60.7981 27.7661 61.5155 23.6745 61.5203 19.5512C61.5204 15.5956 59.8359 11.8271 56.8885 9.18896C53.9411 6.55084 50.0097 5.29277 46.0782 5.72963L36.5419 6.78909C36.1214 6.83536 35.6979 6.73232 35.3456 6.49798C29.5762 2.63047 21.9628 2.96092 16.5502 7.31376L15.3487 8.27476ZM30.1721 53.4789L31.6147 52.2169C33.5949 50.4843 34.0052 47.5617 32.5786 45.3508C31.152 43.1399 28.32 42.3094 25.9253 43.3998L25.553 43.5692V40.969C25.553 40.4564 25.3343 39.9682 24.9517 39.6269C24.5692 39.2857 24.0592 39.124 23.5499 39.1824L20.958 39.4793L23.6625 31.3658C23.7747 31.0289 23.7848 30.6664 23.6913 30.3238L22.6347 26.4531L24.6152 25.7931C29.4301 24.1809 33.3173 20.5727 35.2829 15.8908L41.7383 23.6364V26.5812C41.7383 27.0582 41.9278 27.5156 42.265 27.8529L49.4585 35.0464C49.9727 35.5606 50.746 35.7145 51.4179 35.4364C52.0899 35.1583 52.5282 34.5028 52.5285 33.7756V30.1789C54.02 30.1788 55.3567 31.0992 55.8888 32.4925C56.4208 33.8858 56.0378 35.4629 54.926 36.4569C54.8786 36.4994 54.8335 36.5444 54.7911 36.5918L54.6162 36.7856C54.11 37.3458 54.008 38.1625 54.3606 38.8301C54.7133 39.4976 55.4456 39.8735 56.1936 39.7711L57.9425 52.0137C58.0227 52.5766 58.3645 53.0685 58.8641 53.34L63.9324 56.0919L47.2544 69.737L36.706 59.1887L49.1885 51.2703C51.2733 49.9556 52.5351 47.6608 52.5285 45.1961C52.5285 44.2029 51.7234 43.3977 50.7301 43.3977C49.7369 43.3977 48.9318 44.2029 48.9318 45.1961C48.9351 46.4284 48.3041 47.5757 47.2618 48.2331L33.4209 57.0981L30.1721 53.4789ZM26.062 66.6906L17.6982 69.1998V69.2C12.0927 70.8815 9.36776 73.9558 9.36776 78.598V81.1512H25.553C26.5463 81.1512 27.3514 81.9564 27.3514 82.9496V91.9414H72.3105V82.9496C72.3105 81.9564 73.1157 81.1512 74.1089 81.1512H90.2942V75.0013C90.318 69.831 86.9223 65.2672 81.9632 63.8044C81.9632 63.8044 73.3086 61.1829 73.2463 61.1489L67.3457 57.9449L48.2716 73.5509C47.5566 74.1359 46.5146 74.084 45.8613 73.4309L33.9523 61.5219C33.9523 61.5219 26.066 66.6906 26.062 66.6906Z" clip-rule="evenodd"/><path fill="#BDD3F4" d="M1.6559 52.522C1.71134 53.4722 2.49766 54.2147 3.44954 54.2156 3.48483 54.2156 3.52035 54.2156 3.55587 54.2124L8.94174 53.8977C9.93328 53.8399 10.6902 52.9893 10.6324 51.9977 10.5746 51.0062 9.72399 50.2493 8.73246 50.3071L3.34658 50.6218C2.87039 50.6495 2.42473 50.8653 2.10766 51.2217 1.79058 51.578 1.62808 52.0458 1.6559 52.522zM5.5634 61.3512C5.87049 61.3512 6.17241 61.2722 6.4401 61.1217L10.0328 59.1111C10.8952 58.624 11.2014 57.5313 10.7176 56.667 10.2339 55.8027 9.14243 55.4922 8.27623 55.9725L4.68333 57.9833C3.96866 58.3831 3.61428 59.2151 3.82126 60.0074 4.02824 60.7997 4.74431 61.3521 5.56318 61.3512H5.5634zM4.12175 46.8366L7.81694 48.4223C8.72452 48.7914 9.7606 48.3662 10.1471 47.4658 10.5335 46.5655 10.1282 45.5214 9.2354 45.1178L5.54021 43.5319C4.63228 43.1611 3.5947 43.5861 3.2078 44.4873 2.82091 45.3885 3.22739 46.4335 4.12153 46.8364L4.12175 46.8366zM14.763 50.579H18.36V54.176H14.763zM20.158 55.974H23.755000000000003V59.571H20.158zM12.965 59.571H16.562V63.168H12.965z"/><path fill="#E7544C" stroke="#E3E3E3" stroke-width="1.5" d="M92.1454 10.1415L92.1463 10.144C92.715 11.6989 93.004 13.3424 93 14.9982L93 15.0004C93.001 16.8721 92.6334 18.7256 91.9182 20.4549C91.2031 22.1843 90.1543 23.7555 88.8321 25.0789C87.5098 26.4023 85.9399 27.4518 84.2122 28.1675C82.4845 28.8832 80.6327 29.251 78.7629 29.25H78.7625C78.3998 29.25 78.05 29.2371 77.6858 29.2111C74.0095 28.9385 70.5819 27.2494 68.1244 24.4988C65.6667 21.7479 64.371 18.1499 64.5102 14.462C64.6494 10.7741 66.2126 7.28426 68.8707 4.72683C71.5288 2.16941 75.0744 0.743862 78.7612 0.75002L78.7625 2.0915e-05L78.7628 0.750021C81.6873 0.748809 84.5412 1.64973 86.9359 3.33018C89.3306 5.01064 91.1497 7.38901 92.1454 10.1415Z"/><path fill="#E3E3E3" d="M80.5986 15L87.5177 8.08088C87.6426 7.96029 87.7422 7.81604 87.8107 7.65656C87.8792 7.49707 87.9153 7.32554 87.9168 7.15196C87.9183 6.97839 87.8852 6.80625 87.8195 6.6456C87.7538 6.48495 87.6567 6.33899 87.5339 6.21625C87.4112 6.09351 87.2652 5.99645 87.1046 5.93072C86.9439 5.86499 86.7718 5.83192 86.5982 5.83342C86.4247 5.83493 86.2531 5.87099 86.0936 5.9395C85.9342 6.00801 85.7899 6.1076 85.6693 6.23246L78.7502 13.1516L71.831 6.23246C71.5845 5.99433 71.2542 5.86257 70.9115 5.86555C70.5687 5.86853 70.2409 6.00601 69.9985 6.24838C69.7561 6.49075 69.6187 6.81862 69.6157 7.16137C69.6127 7.50412 69.7445 7.83433 69.9826 8.08088L76.9017 15L69.9826 21.9192C69.8577 22.0398 69.7581 22.184 69.6896 22.3435C69.6211 22.503 69.5851 22.6745 69.5835 22.8481C69.582 23.0217 69.6151 23.1938 69.6808 23.3545C69.7466 23.5151 69.8436 23.6611 69.9664 23.7838C70.0891 23.9066 70.2351 24.0036 70.3957 24.0694C70.5564 24.1351 70.7285 24.1682 70.9021 24.1667C71.0757 24.1651 71.2472 24.1291 71.4067 24.0606C71.5662 23.9921 71.7104 23.8925 71.831 23.7676L78.7502 16.8485L85.6693 23.7676C85.9159 24.0057 86.2461 24.1375 86.5888 24.1345C86.9316 24.1316 87.2594 23.9941 87.5018 23.7517C87.7442 23.5093 87.8817 23.1815 87.8846 22.8387C87.8876 22.496 87.7559 22.1657 87.5177 21.9192L80.5986 15Z"/></svg>