<svg xmlns="http://www.w3.org/2000/svg" fill="none" viewBox="0 0 94 90"><defs/><g fill="#BDE5EC" opacity=".5"><path d="M25.4003 35.1C27.6503 37.425 30.8003 36.6 31.9253 35.925C33.5753 34.95 36.8003 33.825 38.4503 31.125C41.4503 26.1 41.9753 20.775 39.2753 17.475C34.4753 11.475 26.9003 14.025 23.9003 19.05C21.8003 22.875 23.2253 32.775 25.4003 35.1Z"/><path d="M26.3754 19.425C26.3754 21.075 25.1004 22.35 23.4504 22.35C21.8004 22.35 20.5254 21.075 20.5254 19.425"/><path fill-rule="evenodd" d="M36.9505 32.775C35.8255 31.65 35.8255 29.775 36.9505 28.65L27.2005 20.475C26.6005 21 25.8505 21.3 25.1005 21.3C24.3505 21.3 23.6005 21.075 23.0005 20.475C21.8755 19.35 21.8755 17.475 23.0005 16.35C23.0005 16.35 26.4505 13.275 31.4005 12.9C36.4255 12.525 38.1505 16.35 38.1505 16.35C38.1505 16.35 41.6755 16.575 42.7255 21.3C43.7755 25.95 41.0755 32.775 41.0755 32.775C39.9505 33.9 38.0755 33.9 36.9505 32.775ZM61.3255 35.925C62.4505 36.6 65.6005 37.425 67.8505 35.1C70.0255 32.775 71.4505 22.875 69.3505 19.05C66.3505 14.025 58.7755 11.475 53.9755 17.475C51.2755 20.775 51.8005 26.1 54.8005 31.125C56.0966 33.2459 58.3644 34.3949 60.0774 35.2628C60.5452 35.4999 60.9716 35.7159 61.3255 35.925Z" clip-rule="evenodd"/><path d="M66.8755 19.425C66.8755 21.075 68.1505 22.35 69.8005 22.35C71.4505 22.35 72.7255 21.075 72.7255 19.425"/><path d="M56.3002 28.65C57.4252 29.775 57.4252 31.65 56.3002 32.775 55.1752 33.9 53.3002 33.9 52.1752 32.775 52.1752 32.775 49.4752 25.95 50.5252 21.3 51.5752 16.575 55.1002 16.35 55.1002 16.35 55.1002 16.35 56.8252 12.525 61.8502 12.9 66.8002 13.275 70.2502 16.35 70.2502 16.35 71.3752 17.475 71.3752 19.35 70.2502 20.475 69.6502 21.075 68.9002 21.3 68.1502 21.3 67.4002 21.3 66.6502 21 66.0502 20.475M41.5252 22.275C45.2945 22.275 48.3502 19.2193 48.3502 15.45 48.3502 11.6807 45.2945 8.625 41.5252 8.625 37.7559 8.625 34.7002 11.6807 34.7002 15.45 34.7002 19.2193 37.7559 22.275 41.5252 22.275z"/><path d="M65.7502 34.425V42.6L72.5002 51.225L69.8752 81H21.5752L23.4502 45.6L32.0002 39.45L33.5752 30.375L38.4502 29.775L42.6502 36.75C43.7752 38.625 45.7252 39.975 47.9002 40.275C51.1252 40.725 54.2752 39.15 55.7002 36.225L58.6252 30.375L65.7502 34.425Z"/></g><path fill="#BDE5EC" d="M80.375 74.1001C81.65 74.4751 84.425 75.1501 86.675 75.6751C88.775 76.2001 90.425 77.7751 91.025 79.8001L93.875 89.1751H57.125L59.675 79.7251C60.2 77.7001 61.85 76.0501 63.875 75.4501L69.725 73.7251L80.375 74.1001Z"/><path fill="#BDE5EC" d="M79.6251 68.4L80.3751 74.1C80.3751 74.1 73.8501 80.7 69.7251 73.875C71.7501 68.4 70.1001 65.1 70.1001 65.1L70.4001 61.875L76.1751 62.55L79.6251 68.4Z"/><path fill="#BDE5EC" d="M83.5251 68.475C81.0501 71.1 77.5252 70.125 76.2502 69.45C74.4502 68.4 70.7752 67.125 68.9752 64.125C65.6002 58.5 65.0752 52.575 68.0002 48.825C73.4002 42.15 81.8001 45 85.1001 50.625C87.5751 54.825 86.0001 65.85 83.5251 68.475Z"/><path fill="#BDE5EC" fill-rule="evenodd" d="M82.3253 59.1001C78.2753 59.1001 75.0503 55.8001 75.0503 51.8251H89.6003C89.6003 55.8751 86.3003 59.1001 82.3253 59.1001ZM70.9253 60.0001C70.9253 62.3251 73.6253 61.3501 73.6253 61.3501L74.9753 58.6501C74.0753 55.1251 71.0003 57.6751 70.9253 60.0001Z" clip-rule="evenodd"/><path fill="#BDE5EC" fill-rule="evenodd" d="M87.425 50.175C87.425 52.425 85.625 54.225 83.375 54.225V46.125C85.625 46.125 87.425 47.925 87.425 50.175ZM72.575 71.4C70.325 74.625 65.975 75.45 62.75 73.2L70.775 61.575C74 63.825 74.825 68.175 72.575 71.4Z" clip-rule="evenodd"/><path fill="#BDE5EC" fill-rule="evenodd" d="M66.6502 53.325C66.2752 57.6 61.3252 78.3 61.3252 78.3L76.6252 79.5V55.65C76.6252 55.65 67.0252 48.975 66.6502 53.325ZM8.22519 74.85C10.6252 74.25 13.5502 73.5 14.9002 73.125L26.2252 72.9L32.5252 74.7C34.7752 75.375 36.4252 77.1 37.0252 79.275L39.7252 89.325H0.575195L3.5752 79.275C4.2502 77.1 5.97519 75.375 8.22519 74.85Z" clip-rule="evenodd"/><path fill="#BDE5EC" d="M15.7251 67.05L14.9751 73.125C14.9751 73.125 21.9501 80.1 26.3001 72.9C24.2001 67.05 25.9251 63.525 25.9251 63.525L25.5501 60L19.4001 60.75L15.7251 67.05Z"/><path fill="#BDE5EC" d="M11.5253 67.1251C14.1503 69.9001 17.9003 68.9251 19.2503 68.1001C21.2003 66.9751 25.1003 65.6251 27.0503 62.4001C30.6503 56.4751 31.2503 50.1001 28.1003 46.2001C22.4003 39.0751 13.4003 42.1501 9.87534 48.0751C7.25034 52.5751 8.90034 64.3501 11.5253 67.1251Z"/><path fill="#BDE5EC" fill-rule="evenodd" d="M9.275 51.9001C11.15 51.9001 12.725 50.4001 12.725 48.4501H5.75C5.75 50.4001 7.4 51.9001 9.275 51.9001ZM24.95 58.1251C25.025 60.6001 22.1 59.5501 22.1 59.5501L20.675 56.7001C21.65 52.8751 24.875 55.6501 24.95 58.1251Z" clip-rule="evenodd"/><path fill="#BDE5EC" fill-rule="evenodd" d="M8.75029 49.65C10.1003 51 12.2753 51 13.6253 49.65L8.75029 44.775C7.40029 46.125 7.40029 48.3 8.75029 49.65ZM25.2503 64.35C26.6003 65.7 28.7753 65.7 30.1253 64.35L25.2503 59.475C23.9003 60.825 23.9003 63 25.2503 64.35Z" clip-rule="evenodd"/><path fill="#2652E4" d="M43.4 71.7751C41.9 72.1501 38.75 72.9751 36.125 73.6501C33.725 74.2501 31.775 76.0501 31.1 78.4501L27.875 89.2501H70.25L67.25 78.3751C66.575 75.9751 64.775 74.1751 62.45 73.4251L55.7 71.4751L43.4 71.7751Z"/><path fill="#FFC298" d="M44.3001 65.25L43.4751 71.775C43.4751 71.775 51.0501 79.35 55.7001 71.55C53.3751 65.25 55.2501 61.425 55.2501 61.425L54.9501 57.675L48.2751 58.425L44.3001 65.25Z"/><path fill="#E1927A" d="M53.0002 60.15C53.0002 60 54.9502 58.8 54.9502 58.65L54.8752 57.675L48.2002 58.425L44.3002 65.25L43.7002 69.825C45.5752 69.975 47.9752 68.925 48.8752 68.475C51.8002 67.05 52.7752 64.35 53.0002 60.15Z"/><path fill="#FFC298" d="M40.025 65.1751C43.1 68.4001 47.45 67.2751 49.025 66.3751C51.275 65.0251 54.875 62.0251 55.7 57.6751C56.45 53.3251 56.45 49.6501 53.375 45.6001C50.3 41.5501 38.45 42.3751 38.075 43.0501C34.925 48.1501 36.95 61.9501 40.025 65.1751Z"/><path fill="#892E1D" d="M32.6001 40.575C32.6001 40.575 31.1751 45.9 36.6501 47.925C41.9751 49.875 47.7501 45.9 47.7501 45.9C47.7501 45.9 47.7501 54.525 55.3251 61.35C61.8501 59.7 65.3001 43.65 54.2751 38.175C42.8001 32.475 36.2751 42 36.2751 42L32.6001 40.575Z"/><path fill="#FFC298" d="M51.2 57.15C51.2 57.15 54.35 58.275 54.275 55.575C54.2 52.875 50.675 49.95 49.625 54.075"/><path fill="#892E1D" d="M37.3251 42.45C35.7501 42.45 34.4751 41.175 34.4751 39.6C34.4751 38.025 35.7501 36.75 37.3251 36.75"/><path fill="#E44450" d="M73.4754 2.02502L58.8504 27.3C57.8004 29.175 59.1504 31.5 61.2504 31.5H90.5004C92.6754 31.5 94.0254 29.175 92.9004 27.3L78.2754 2.02502C77.2254 0.150024 74.6004 0.150024 73.4754 2.02502Z"/><path fill="#fff" d="M78.5 9.375L77 20.55H74.825L73.25 9.375H78.5zM75.875 27.15C76.9105 27.15 77.75 26.3106 77.75 25.275 77.75 24.2395 76.9105 23.4 75.875 23.4 74.8395 23.4 74 24.2395 74 25.275 74 26.3106 74.8395 27.15 75.875 27.15z"/></svg>