<svg xmlns="http://www.w3.org/2000/svg" fill="none" viewBox="0 0 96 96"><defs/><path fill="#E44450" d="M17.0556 2.37487e-05C20.5535 -0.00142489 23.9669 1.07554 26.8309 3.08427C29.6949 5.09301 31.8704 7.93589 33.0612 11.2258C33.7418 13.0858 34.0877 15.0516 34.0829 17.0323C34.0841 19.2693 33.6445 21.4847 32.7892 23.5517C31.934 25.6187 30.6798 27.4968 29.0984 29.0786C27.5171 30.6605 25.6395 31.915 23.5731 32.7705C21.5067 33.626 19.292 34.0658 17.0556 34.0645C16.6222 34.0645 16.2043 34.049 15.7709 34.0181C11.3734 33.6926 7.27357 31.6734 4.33434 28.3854C1.39511 25.0973 -0.154318 20.7969 0.0121498 16.3893C0.178617 11.9816 2.048 7.81038 5.22686 4.75355C8.40572 1.69672 12.6461 -0.00733722 17.0556 2.37487e-05V2.37487e-05Z"/><path fill="#34C1AD" d="M66.543 87.9949L65.0415 86.7097H66.5894C68.1078 86.748 69.6152 86.4419 70.9985 85.8145C72.3818 85.187 73.6051 84.2543 74.5767 83.0865C76.5123 80.5834 77.519 77.4857 77.4249 74.3226L96.0001 91.3549V96H75.877L66.543 87.9949Z"/><path fill="#34C1AD" d="M75.8767 96H12.4116L15.5075 91.3549L37.1785 86.7097C37.1785 86.7097 40.2743 89.8065 48.014 89.8065C55.7536 89.8065 58.8495 86.7097 58.8495 86.7097L66.5427 87.9949L75.8767 96Z"/><path fill="#5E3616" d="M56.9613 52.6451C56.8215 52.6478 56.682 52.6581 56.5434 52.6761V52.6451C56.007 51.7025 55.7343 50.6328 55.7539 49.5484 55.7539 46.978 57.1471 44.9032 58.8498 44.9032 60.5525 44.9032 61.9456 46.978 61.9456 49.5484 62.0378 50.4606 61.8557 51.3796 61.4228 52.1878 60.9899 52.996 60.3257 53.6566 59.5154 54.0851L59.051 53.5742C58.7869 53.2819 58.4645 53.0482 58.1046 52.8882 57.7446 52.7281 57.3552 52.6454 56.9613 52.6451V52.6451zM37.1789 54.1935C38.8887 54.1935 40.2747 52.1138 40.2747 49.5484 40.2747 46.9829 38.8887 44.9032 37.1789 44.9032 35.4691 44.9032 34.083 46.9829 34.083 49.5484 34.083 52.1138 35.4691 54.1935 37.1789 54.1935z"/><path fill="#5E3616" d="M54.1906 27.902C53.7262 28.5368 46.1259 38.7097 35.6309 38.7097V29.4194L26.3434 37.1613V44.9032H23.2475C22.0159 44.9032 20.8347 45.3926 19.9639 46.2638C19.093 47.1349 18.6037 48.3164 18.6037 49.5484V51.0968C18.6023 52.1096 18.7271 53.1187 18.9752 54.1007L18.6037 54.1936C18.6037 54.1936 13.9599 51.0968 13.9599 41.8065C13.9005 39.1143 14.5236 36.4508 15.771 34.0645V34.0181C16.2044 34.049 16.6224 34.0645 17.0558 34.0645C19.2922 34.0658 21.5069 33.626 23.5733 32.7705C25.6397 31.915 27.5172 30.6605 29.0986 29.0786C30.6799 27.4968 31.9341 25.6187 32.7894 23.5517C33.6446 21.4847 34.0842 19.2693 34.083 17.0323C34.0878 15.0516 33.7419 13.0858 33.0614 11.2258C38.1545 8.61863 43.8502 7.41609 49.5623 7.74196C57.3019 7.74196 63.4937 15.4839 63.4937 15.4839C63.4937 15.4839 64.9487 12.5574 70.707 12.3871C76.9451 12.2168 82.0688 20.0671 82.0688 26.3226V43.1845C82.068 44.3079 81.7631 45.4102 81.1865 46.3742L77.425 52.6452L77.3167 52.6297C77.3923 52.1223 77.4285 51.6098 77.425 51.0968V49.5484C77.425 48.3164 76.9357 47.1349 76.0649 46.2638C75.194 45.3926 74.0128 44.9032 72.7812 44.9032H69.6854V38.7097C63.4937 35.6129 61.9457 26.3226 61.9457 26.3226C61.2643 28.3457 60.0356 30.1402 58.3961 31.5069C56.7565 32.8736 54.7704 33.7589 52.6581 34.0645L54.1906 27.902Z"/><path fill="#F2BCA7" d="M59.5155 54.0851L68.1374 63.4838V57.2903C68.1451 56.4714 68.4737 55.6881 69.0527 55.109C69.6316 54.5299 70.4146 54.2012 71.2333 54.1935C72.0504 54.2063 72.8304 54.5367 73.4083 55.1147C73.9861 55.6927 74.3164 56.473 74.3291 57.2903V68.129L77.425 74.3226C77.5191 77.4857 76.5124 80.5833 74.5768 83.0864C73.6052 84.2542 72.3819 85.1869 70.9986 85.8144C69.6153 86.4419 68.1079 86.7479 66.5895 86.7096H65.0416L58.8498 83.1638L54.2061 80.5161L52.4105 78.5496L44.0362 69.3987C43.7842 69.1188 43.5964 68.7872 43.4859 68.4271C43.3754 68.067 43.3449 67.6871 43.3965 67.314C43.4481 66.9408 43.5805 66.5835 43.7846 66.2669C43.9887 65.9504 44.2595 65.6822 44.5779 65.4813C45.0309 65.1909 45.557 65.0352 46.0949 65.0322C46.4834 65.0283 46.8683 65.1078 47.2235 65.2654C47.5786 65.423 47.8958 65.655 48.1537 65.9458L55.754 74.3226L47.132 64.7535C46.88 64.4736 46.6922 64.142 46.5817 63.7819C46.4712 63.4218 46.4407 63.0419 46.4923 62.6688C46.5439 62.2957 46.6764 61.9383 46.8805 61.6218C47.0846 61.3052 47.3553 61.0371 47.6738 60.8361C48.1267 60.5458 48.6528 60.39 49.1908 60.3871C49.5793 60.3831 49.9641 60.4626 50.3193 60.6202C50.6745 60.7778 50.9917 61.0099 51.2495 61.3006L58.8498 69.6774H58.8963L50.2588 60.1239C50.0047 59.8449 49.8143 59.5138 49.701 59.1538C49.5877 58.7937 49.5542 58.4133 49.6028 58.0389C49.6514 57.6646 49.781 57.3054 49.9825 56.9862C50.184 56.6671 50.4526 56.3957 50.7697 56.1909C51.2226 55.9006 51.7487 55.7449 52.2866 55.7419C52.6752 55.738 53.06 55.8175 53.4152 55.9751C53.7703 56.1327 54.0875 56.3647 54.3454 56.6555L61.9457 65.0322L54.8407 56.8722C54.5956 56.5995 54.4145 56.2753 54.3108 55.9236C54.207 55.5718 54.1832 55.2013 54.2411 54.8391C54.299 54.4769 54.4371 54.1323 54.6453 53.8304C54.8535 53.5284 55.1265 53.2769 55.4444 53.0942C55.7782 52.8809 56.1523 52.7386 56.5434 52.6761C56.6821 52.6581 56.8216 52.6478 56.9614 52.6451C57.3553 52.6454 57.7447 52.7281 58.1046 52.8882C58.4646 53.0482 58.787 53.2819 59.0511 53.5742L59.5155 54.0851Z"/><path fill="#F2B59D" d="M58.8497 83.1639V86.7097C58.8497 86.7097 55.7539 89.8064 48.0142 89.8064C40.2746 89.8064 37.1787 86.7097 37.1787 86.7097V76.2581C41.8445 78.7418 47.2205 79.5506 52.4103 78.5497L54.2059 80.5161L58.8497 83.1639Z"/><path fill="#F2C4B2" d="M37.1787 76.2581C34.4303 74.8153 32.0341 72.7836 30.1612 70.3078C28.2882 67.832 26.9845 64.9733 26.3432 61.9355C24.518 61.4249 22.867 60.4252 21.5685 59.0444C20.2699 57.6636 19.3731 55.9541 18.975 54.1007C18.7269 53.1187 18.6021 52.1097 18.6035 51.0968V49.5484C18.6035 48.3165 19.0928 47.1349 19.9637 46.2638C20.8345 45.3927 22.0157 44.9033 23.2473 44.9033H26.3432V37.1613L35.6307 29.4194V38.7097C46.1257 38.7097 53.726 28.5368 54.1904 27.902L52.658 34.0646C54.7702 33.759 56.7563 32.8736 58.3959 31.507C60.0354 30.1403 61.2641 28.3457 61.9455 26.3226C61.9455 26.3226 63.4935 35.613 69.6852 38.7097V44.9033H72.781C74.0126 44.9033 75.1938 45.3927 76.0647 46.2638C76.9356 47.1349 77.4248 48.3165 77.4248 49.5484V51.0968C77.4284 51.6098 77.3921 52.1223 77.3165 52.6297C77.0464 55.0763 75.9994 57.3719 74.329 59.1794V57.2904C74.3162 56.473 73.9859 55.6928 73.4081 55.1147C72.8302 54.5367 72.0502 54.2064 71.2331 54.1936C70.4144 54.2013 69.6314 54.53 69.0525 55.1091C68.4735 55.6882 68.1449 56.4714 68.1372 57.2904V63.4839L59.5153 54.0852C60.3256 53.6567 60.9897 52.996 61.4227 52.1879C61.8556 51.3797 62.0376 50.4607 61.9455 49.5484C61.9455 46.9781 60.5524 44.9033 58.8497 44.9033C57.147 44.9033 55.7538 46.9781 55.7538 49.5484C55.7342 50.6329 56.0069 51.7026 56.5433 52.6452V52.6762C56.1521 52.7387 55.778 52.881 55.4442 53.0942C55.1263 53.277 54.8533 53.5285 54.6451 53.8304C54.4369 54.1323 54.2988 54.477 54.2409 54.8391C54.1831 55.2013 54.2069 55.5718 54.3106 55.9236C54.4144 56.2754 54.5954 56.5995 54.8405 56.8723L61.9455 65.0323L54.3452 56.6555C54.0874 56.3648 53.7702 56.1328 53.415 55.9751C53.0598 55.8175 52.675 55.738 52.2865 55.742C51.7485 55.7449 51.2224 55.9007 50.7695 56.191C50.4525 56.3958 50.1838 56.6672 49.9823 56.9863C49.7808 57.3054 49.6512 57.6647 49.6026 58.039C49.554 58.4133 49.5875 58.7938 49.7008 59.1538C49.8141 59.5139 50.0045 59.8449 50.2587 60.1239L58.8961 69.6775H58.8497L51.2493 61.3007C50.9915 61.0099 50.6743 60.7779 50.3191 60.6203C49.964 60.4627 49.5791 60.3832 49.1906 60.3871C48.6526 60.3901 48.1266 60.5458 47.6736 60.8362C47.3551 61.0371 47.0844 61.3053 46.8803 61.6218C46.6762 61.9384 46.5437 62.2957 46.4921 62.6689C46.4405 63.042 46.4711 63.4219 46.5816 63.782C46.692 64.1421 46.8799 64.4737 47.1319 64.7536L55.7538 74.3226L48.1535 65.9458C47.8957 65.6551 47.5784 65.4231 47.2233 65.2655C46.8681 65.1079 46.4833 65.0284 46.0947 65.0323C45.5568 65.0353 45.0307 65.191 44.5778 65.4813C44.2593 65.6823 43.9885 65.9504 43.7844 66.267C43.5804 66.5836 43.4479 66.9409 43.3963 67.314C43.3447 67.6872 43.3752 68.067 43.4857 68.4271C43.5962 68.7872 43.784 69.1188 44.036 69.3987L52.4103 78.5497C47.2205 79.5507 41.8445 78.7419 37.1787 76.2581V76.2581ZM40.2745 49.5484C40.2745 46.9781 38.8814 44.9033 37.1787 44.9033C35.476 44.9033 34.0828 46.9781 34.0828 49.5484C34.0828 52.1188 35.476 54.1936 37.1787 54.1936C38.8814 54.1936 40.2745 52.1188 40.2745 49.5484Z"/><path fill="#ED9776" d="M58.8498 83.1639L54.206 80.5162L52.4104 78.5497C49.4049 79.1307 46.3137 79.1059 43.3179 78.4769L46.2187 81.6465L48.0143 83.6129L52.6581 86.2607L56.2183 88.303C57.1792 87.9245 58.069 87.3858 58.8498 86.7097V83.1639Z"/><path fill="#F2A283" d="M73.4156 55.1226C73.5283 55.2343 73.6319 55.3549 73.7252 55.4834 74.1216 54.6537 74.3279 53.7459 74.3288 52.8263V51.0968C74.3288 50.2755 74.0027 49.4878 73.4221 48.907 72.8415 48.3263 72.0541 48 71.233 48H69.6851V54.6333C70.2691 54.2761 70.9579 54.1299 71.6367 54.2189 72.3155 54.3079 72.9433 54.6269 73.4156 55.1226V55.1226zM26.343 58.8387V48H24.7951C23.974 48 23.1866 48.3263 22.606 48.907 22.0254 49.4878 21.6992 50.2755 21.6992 51.0968V52.8263C21.6975 54.1276 22.1056 55.3964 22.8655 56.4526 23.6255 57.5087 24.6987 58.2987 25.9328 58.7102L26.343 58.8387zM41.8071 42.1936C46.1576 40.3965 50.0101 37.5755 53.0373 33.9701 52.9088 33.9995 52.7912 34.0382 52.6581 34.0646L54.1905 27.902C50.9796 32.1479 46.709 35.4746 41.8071 37.5484 39.8347 38.3032 37.7426 38.6966 35.6309 38.7097V43.3549C37.7426 43.3417 39.8347 42.9484 41.8071 42.1936V42.1936zM61.9458 30.9678C61.9458 30.9678 63.4937 40.2581 69.6854 43.3549V38.7097C63.4937 35.613 61.9458 26.3226 61.9458 26.3226 61.3378 28.1389 60.2813 29.7724 58.8742 31.0716 57.4672 32.3708 55.7551 33.2937 53.8965 33.7549L52.6582 38.7097C54.7704 38.4041 56.7566 37.5188 58.3961 36.1521 60.0357 34.7854 61.2644 32.9909 61.9458 30.9678zM35.6308 29.4194L26.3433 37.1614V41.8065L35.6308 34.0646V29.4194z"/><path fill="#3B220E" d="M17.0555 34.0646C16.6344 34.0646 16.2273 34.0491 15.8078 34.0197 14.5386 36.4154 13.9024 39.0958 13.9596 41.8065 13.9596 51.0968 18.6034 54.1936 18.6034 54.1936L18.9749 54.1007C18.7267 53.1187 18.6019 52.1097 18.6034 51.0968V49.5484C18.6034 48.3165 19.0926 47.1349 19.9635 46.2638 20.8344 45.3927 22.0156 44.9033 23.2472 44.9033H26.343V37.1613L18.6034 40.2581C18.039 39.3323 17.6854 38.2935 17.5677 37.2156 17.45 36.1377 17.5711 35.047 17.9223 34.0212 17.6328 34.0351 17.348 34.0646 17.0555 34.0646zM69.6851 38.7097V44.9033H72.7809C74.0125 44.9033 75.1937 45.3927 76.0646 46.2638 76.9354 47.1349 77.4247 48.3164 77.4247 49.5484V41.8065C74.5549 41.7465 71.8045 40.6461 69.6851 38.7097V38.7097z"/><path fill="#ED9776" d="M52.4103 78.5497C47.2207 79.5593 41.8418 78.7501 37.1787 76.2581V86.7097C37.7955 87.2508 38.488 87.6989 39.2344 88.0397L55.3127 81.1479L54.2059 80.5161L52.4103 78.5497Z"/><path fill="#21ABAB" d="M37.1785 86.7097L15.5075 91.3549 12.4116 96H21.6992L41.5127 88.9224C39.9214 88.5165 38.4407 87.7606 37.1785 86.7097V86.7097zM58.8499 86.7097C57.8254 87.5777 56.6397 88.2349 55.3608 88.6437L55.8732 88.718C60.8623 89.4305 65.5693 91.4676 69.5043 94.6173L71.2333 96H75.8771L66.5431 87.9949 58.8499 86.7097z"/><path fill="#E3E3E3" d="M60.3343 87.0287L58.8499 86.7097C58.8499 86.7097 55.754 89.8065 48.0144 89.8065C40.2747 89.8065 37.1789 86.7097 37.1789 86.7097L35.6929 87.0287C35.7449 87.3195 35.881 87.5887 36.0845 87.8029C36.23 87.9484 39.7283 91.3549 48.0144 91.3549C56.3004 91.3549 59.7988 87.9484 59.9443 87.8044C60.1481 87.5901 60.2839 87.3202 60.3343 87.0287V87.0287Z"/><path fill="#E4E4E2" d="M33.061 11.2258C32.0171 8.34732 30.2167 5.80354 27.8493 3.86227C25.4819 1.921 22.6351 0.654048 19.6085 0.194761C16.5819 -0.264526 13.4876 0.100845 10.6511 1.25241C7.81463 2.40398 5.34098 4.29916 3.49051 6.73846C1.64004 9.17775 0.481205 12.0709 0.135977 15.1135C-0.209251 18.1561 0.271898 21.2355 1.52878 24.0275C2.78566 26.8196 4.77179 29.2211 7.2781 30.9793C9.78441 32.7374 12.7182 33.7872 15.7707 34.0181C16.2041 34.0491 16.622 34.0646 17.0555 34.0646C19.2919 34.0658 21.5066 33.6261 23.5729 32.7705C25.6393 31.915 27.5169 30.6605 29.0982 29.0786C30.6796 27.4968 31.9338 25.6187 32.789 23.5517C33.6443 21.4847 34.0839 19.2694 34.0827 17.0323C34.0875 15.0517 33.7416 13.0858 33.061 11.2258V11.2258ZM17.0555 32.5162C13.994 32.5162 11.0012 31.6081 8.45564 29.9067C5.91008 28.2053 3.92606 25.787 2.75447 22.9577C1.58288 20.1284 1.27634 17.0151 1.87361 14.0115C2.47088 11.008 3.94514 8.24901 6.10996 6.08355C8.27478 3.91809 11.0329 2.4434 14.0356 1.84595C17.0383 1.2485 20.1507 1.55514 22.9791 2.72707C25.8076 3.89901 28.2251 5.88362 29.926 8.42992C31.6269 10.9762 32.5348 13.9699 32.5348 17.0323C32.5348 21.1389 30.9039 25.0773 28.001 27.981C25.098 30.8848 21.1608 32.5162 17.0555 32.5162V32.5162Z"/><path fill="#5E3616" d="M61.8031 39.5133C61.8356 39.504 61.8666 39.4962 61.8991 39.49 62.3634 39.4064 62.7195 40.145 62.7195 40.6451 62.7195 40.786 62.6668 44.129 58.0757 44.129 53.4845 44.129 53.4319 40.786 53.4319 40.6451 53.4248 40.4412 53.4688 40.2388 53.5599 40.0562 53.651 39.8737 53.7864 39.7169 53.9535 39.6 54.291 39.394 54.6192 39.586 54.8823 39.9097 55.0108 40.0645 55.1098 40.2627 55.2461 40.4113 55.3817 40.546 55.5386 40.6575 55.7104 40.7411 56.1171 40.979 56.5471 41.1746 56.9937 41.3249 57.5866 41.4955 58.2127 41.5153 58.8152 41.3825 59.4178 41.2498 59.9776 40.9686 60.444 40.5646 60.8316 40.1369 61.2917 39.7809 61.8031 39.5133V39.5133zM40.1322 44.0996C40.1647 44.1089 40.1957 44.1167 40.2282 44.1229 40.6925 44.2065 41.0486 43.4679 41.0486 42.9678 41.0486 42.8269 40.9959 39.4839 36.4048 39.4839 31.8136 39.4839 31.761 42.8269 31.761 42.9678 31.7539 43.1717 31.7979 43.3741 31.889 43.5567 31.9801 43.7392 32.1155 43.896 32.2826 44.0129 32.6201 44.2188 32.9483 44.0269 33.2114 43.7032 33.3399 43.5484 33.4389 43.3502 33.5752 43.2016 33.7108 43.0669 33.8677 42.9554 34.0395 42.8718 34.4462 42.6339 34.8762 42.4383 35.3228 42.288 35.9157 42.1174 36.5418 42.0976 37.1443 42.2304 37.7469 42.3631 38.3067 42.6443 38.7731 43.0483 39.1607 43.476 39.6208 43.832 40.1322 44.0996V44.0996z"/><path fill="#D9896D" d="M48.0142 58.8387C48.8691 58.8387 49.5622 57.4522 49.5622 55.7419C49.5622 54.0316 48.8691 52.6451 48.0142 52.6451C47.1593 52.6451 46.4663 54.0316 46.4663 55.7419C46.4663 57.4522 47.1593 58.8387 48.0142 58.8387Z"/><path fill="#F2B59D" d="M50.2588 60.1239L58.8498 69.6774C58.8591 69.6682 58.8606 69.6573 58.8699 69.648L50.2588 60.1239Z"/><path fill="#F2B59D" d="M58.8697 69.6479C58.8604 69.6572 58.8589 69.6681 58.8496 69.6774H58.896L58.8697 69.6479Z"/><path fill="#F2B096" d="M73.9808 78.2741C73.5087 79.5229 72.723 80.629 71.6996 81.4859 70.6762 82.3429 69.4494 82.9218 68.1374 83.167 66.4075 83.608 64.5737 83.3534 63.0292 82.4579L54.206 77.4194 44.1043 65.87C43.6471 66.3396 43.3857 66.9656 43.373 67.6209 43.3604 68.2763 43.5975 68.9119 44.0362 69.3988L52.4104 78.5497 54.206 80.5162 58.8498 83.1639 65.0415 86.7097H66.5895C68.1079 86.748 69.6153 86.442 70.9986 85.8145 72.3819 85.187 73.6052 84.2543 74.5768 83.0865 76.5124 80.5834 77.5191 77.4857 77.425 74.3226 76.616 74.7176 75.8945 75.2708 75.3029 75.9495 74.7113 76.6282 74.2618 77.4187 73.9808 78.2741V78.2741zM62.0526 61.8364L54.864 53.6176C54.4443 54.0534 54.208 54.6337 54.2037 55.2387 54.1994 55.8438 54.4274 56.4274 54.8407 56.8692L61.9457 65.0323C62.3656 64.6126 62.6103 64.0489 62.6301 63.4554 62.65 62.862 62.4435 62.2832 62.0526 61.8364z"/><path fill="#F2B096" d="M58.9565 66.4816L50.2989 56.5828C49.8458 57.0585 49.5897 57.6884 49.5822 58.3454 49.5747 59.0025 49.8164 59.638 50.2586 60.1239L58.8698 69.648C59.2795 69.2278 59.5159 68.6686 59.532 68.0818 59.548 67.495 59.3426 66.9237 58.9565 66.4816V66.4816zM56.8512 73.7745C57.0794 73.6602 57.2773 73.4932 57.4284 73.2875 57.5795 73.0817 57.6796 72.8429 57.7204 72.5909 57.7612 72.3388 57.7416 72.0807 57.6631 71.8377 57.5847 71.5947 57.4496 71.3739 57.2691 71.1933L47.2525 61.1737C46.7849 61.6291 46.5074 62.245 46.4761 62.8971 46.4448 63.5492 46.662 64.1888 47.0837 64.687L54.9333 73.4106C55.1691 73.6728 55.4845 73.8504 55.8309 73.9161 56.1773 73.9818 56.5357 73.9321 56.8512 73.7745V73.7745zM71.2331 62.8429V54.1936C70.4144 54.2013 69.6314 54.53 69.0524 55.1091 68.4735 55.6882 68.1449 56.4714 68.1372 57.2904V63.4839L68.5907 63.9376C68.8072 64.1541 69.083 64.3015 69.3832 64.3612 69.6835 64.4209 69.9947 64.3903 70.2775 64.2731 70.5603 64.1559 70.802 63.9575 70.9721 63.703 71.1422 63.4484 71.233 63.1491 71.2331 62.8429z"/><path fill="#ED9776" d="M54.2058 80.5161L52.4102 78.5497C51.5318 78.7147 50.6443 78.8269 49.7524 78.8857L50.8623 80.0981L52.6579 82.0645L57.3017 84.7123L58.8496 85.5979V83.1639L54.2058 80.5161Z"/><path fill="#ED9776" d="M44.0362 69.3987C43.7248 69.0529 43.5126 68.6293 43.4221 68.1728 43.3316 67.7162 43.3663 67.2437 43.5223 66.8052 43.3514 66.864 43.1866 66.9392 43.0301 67.0297 42.7116 67.2307 42.4408 67.4988 42.2368 67.8154 42.0327 68.1319 41.9002 68.4893 41.8486 68.8624 41.797 69.2355 41.8275 69.6154 41.938 69.9755 42.0485 70.3356 42.2363 70.6672 42.4883 70.9471L49.7527 78.8857C50.6446 78.8269 51.5321 78.7147 52.4105 78.5497L44.0362 69.3987zM61.9456 65.0323L54.8406 56.8723C54.5231 56.554 54.309 56.1473 54.2261 55.7053 54.1433 55.2633 54.1956 54.8067 54.3762 54.3949 54.2088 54.4607 54.0477 54.5415 53.8948 54.6364 53.4587 54.924 53.1131 55.3294 52.8979 55.8055 53.4582 55.9236 53.9653 56.2195 54.3437 56.6493L61.9456 65.0323zM51.2492 61.3007L58.8495 69.6774H58.8959L50.2585 60.1239C49.9421 59.7766 49.7258 59.35 49.6325 58.8895 49.5393 58.4289 49.5727 57.9517 49.7291 57.5087 49.5528 57.5689 49.3827 57.6462 49.2214 57.7394 48.7557 58.041 48.399 58.4843 48.204 59.0038 48.0089 59.5234 47.9857 60.0918 48.1378 60.6256 48.4698 60.4782 48.8274 60.3972 49.1904 60.3871 49.5789 60.3832 49.9638 60.4627 50.319 60.6203 50.6741 60.7779 50.9913 61.0099 51.2492 61.3007V61.3007zM66.5894 58.8388V61.7962L68.1373 63.4839V57.2904C68.1399 56.8524 68.2376 56.4203 68.4237 56.0238 67.8817 56.2697 67.4212 56.6652 67.0963 57.1638 66.7713 57.6625 66.5955 58.2436 66.5894 58.8388V58.8388zM48.1536 65.9458L55.7539 74.3226 47.1319 64.7536C46.8205 64.4078 46.6083 63.9842 46.5178 63.5276 46.4273 63.0711 46.462 62.5985 46.618 62.16 46.4471 62.2189 46.2823 62.2941 46.1258 62.3846 45.6536 62.683 45.2907 63.1263 45.0914 63.6483 44.8922 64.1703 44.8673 64.7427 45.0206 65.28 45.3584 65.1262 45.7238 65.042 46.0948 65.0323 46.4833 65.0283 46.8682 65.1079 47.2234 65.2655 47.5785 65.4231 47.8957 65.6551 48.1536 65.9458V65.9458z"/><path fill="#F2A283" d="M40.2747 65.0323C40.2782 63.2794 39.6856 61.5774 38.5943 60.206C37.5029 58.8345 35.9777 57.8751 34.2692 57.4854C32.5607 57.0956 30.7705 57.2987 29.1926 58.0613C27.6147 58.8238 26.343 60.1005 25.5864 61.6816C25.8372 61.7683 26.0818 61.8689 26.3434 61.9355C27.1999 66.0831 29.317 69.8644 32.4051 72.7618C32.4499 72.7618 32.4902 72.7742 32.5351 72.7742C33.5515 72.7742 34.5579 72.574 35.4969 72.1849C36.4359 71.7958 37.2891 71.2256 38.0078 70.5066C38.7265 69.7877 39.2966 68.9343 39.6856 67.995C40.0745 67.0557 40.2747 66.049 40.2747 65.0323Z"/><path fill="#E4E4E2" d="M19.2445 17.0323L27.4377 8.83668C27.5855 8.69385 27.7034 8.52299 27.7845 8.33408C27.8657 8.14517 27.9084 7.942 27.9102 7.7364C27.9119 7.53081 27.8728 7.32692 27.7949 7.13663C27.7171 6.94633 27.6022 6.77345 27.4568 6.62807C27.3115 6.48269 27.1387 6.36772 26.9484 6.28986C26.7582 6.21201 26.5544 6.17283 26.3488 6.17462C26.1433 6.17641 25.9402 6.21912 25.7513 6.30027C25.5625 6.38142 25.3917 6.49938 25.2489 6.64727L17.0557 14.8429L8.86251 6.64727C8.57056 6.36521 8.17955 6.20914 7.77369 6.21267C7.36783 6.2162 6.97959 6.37904 6.69259 6.66613C6.40559 6.95321 6.2428 7.34156 6.23927 7.74755C6.23575 8.15353 6.39177 8.54465 6.67374 8.83668L14.8669 17.0323L6.67374 25.2279C6.52589 25.3707 6.40797 25.5416 6.32684 25.7305C6.24572 25.9194 6.20302 26.1226 6.20123 26.3282C6.19944 26.5338 6.23861 26.7377 6.31644 26.928C6.39427 27.1183 6.50921 27.2911 6.65455 27.4365C6.79989 27.5819 6.97272 27.6969 7.16295 27.7747C7.35319 27.8526 7.55702 27.8918 7.76255 27.89C7.96808 27.8882 8.1712 27.8455 8.36006 27.7643C8.54891 27.6832 8.71972 27.5652 8.86251 27.4173L17.0557 19.2217L25.2489 27.4173C25.5408 27.6994 25.9318 27.8554 26.3377 27.8519C26.7436 27.8484 27.1318 27.6855 27.4188 27.3985C27.7058 27.1114 27.8686 26.723 27.8721 26.317C27.8756 25.9111 27.7196 25.5199 27.4377 25.2279L19.2445 17.0323Z"/></svg>