<svg xmlns="http://www.w3.org/2000/svg" fill="none" viewBox="0 0 96 96"><defs/><path fill="#E8C8B3" d="M1.27148 57.5364V49.5894L28.6092 60.7152L18.9606 62.3046L1.27148 57.5364Z"/><path fill="#63D5EE" d="M52.7675 48.9536C49.2981 48.953 46.1025 50.8377 44.4241 53.8743C41.9078 51.4903 37.9457 51.5617 35.5169 54.0348C33.0881 56.5078 33.0881 60.4708 35.5169 62.9438C37.9457 65.4169 41.9078 65.4883 44.4241 63.1043C46.6743 67.1734 51.5312 69.0261 55.9196 67.4894C60.308 65.9527 62.9483 61.4747 62.1687 56.8907C61.3892 52.3066 57.4172 48.9532 52.7675 48.9536Z"/><path fill="#F5D3BD" d="M1.90723 57.7778L17.8251 60.9651L20.4316 57.833C23.9189 53.6436 28.5849 50.6019 33.8225 49.104C35.6225 48.589 37.5335 49.4307 38.3706 51.107C38.8321 52.0309 38.908 53.1005 38.5818 54.0804C38.2556 55.0604 37.5538 55.8704 36.631 56.3324C34.7566 57.2706 33.2367 58.7923 32.2996 60.6689L32.1511 60.9651H36.9265V86.4635H21.2872C19.0708 86.4637 16.945 85.5823 15.3777 84.0133L11.4579 80.0889L1.90723 76.9016V57.7778Z"/><path fill="#F5D3BD" d="M52.7681 67.3907H36.874V61.0331H52.7681C54.5237 61.0331 55.9469 62.4563 55.9469 64.2119C55.9469 65.9675 54.5237 67.3907 52.7681 67.3907Z"/><path fill="#F5D3BD" d="M55.311 65.4834C55.174 65.7724 55.0066 66.0384 54.8132 66.2749C54.2249 66.9904 53.4268 67.3918 52.5949 67.3907H40.0527V65.4834H55.311Z"/><path fill="#F5D3BD" d="M55.9469 73.7484H36.874V67.3907H55.9469C57.7025 67.3907 59.1257 68.8139 59.1257 70.5696C59.1257 72.3252 57.7025 73.7484 55.9469 73.7484Z"/><path fill="#F5D3BD" d="M52.7681 80.1059H36.874V73.7483H52.7681C54.5237 73.7483 55.9469 75.1715 55.9469 76.9271 55.9469 78.6827 54.5237 80.1059 52.7681 80.1059zM49.5893 86.4636H36.874V80.106H49.5893C51.3449 80.106 52.7681 81.5292 52.7681 83.2848 52.7681 85.0404 51.3449 86.4636 49.5893 86.4636z"/><path fill="#E8C8B3" d="M43.2316 75.0199C41.476 75.0199 40.0528 76.469 40.0528 78.2565C40.0528 76.469 38.6296 75.0199 36.874 75.0199C35.1184 75.0199 33.6952 76.469 33.6952 78.2565V79.8748C33.6952 78.0873 32.272 76.6382 30.5164 76.6382C28.7608 76.6382 27.3376 78.0873 27.3376 79.8748V81.4931C27.3376 79.7056 25.9144 78.2565 24.1588 78.2565C22.4032 78.2565 20.98 79.7056 20.98 81.4931V89.5846C20.98 91.3721 22.4032 92.8212 24.1588 92.8212C25.9144 92.8212 27.3376 91.3721 27.3376 89.5846V87.9663C27.3376 89.7538 28.7608 91.2029 30.5164 91.2029C32.272 91.2029 33.6952 89.7538 33.6952 87.9663V86.348C33.6952 88.1355 35.1184 89.5846 36.874 89.5846C38.6296 89.5846 40.0528 88.1355 40.0528 86.348V84.7297C40.0528 86.5172 41.476 87.9663 43.2316 87.9663C44.9872 87.9663 46.4104 86.5172 46.4104 84.7297V78.2565C46.4104 76.469 44.9872 75.0199 43.2316 75.0199Z"/><path fill="#E4E4E2" d="M87.7353 12.7153H75.02V4.13247C75.02 2.55243 76.2653 1.27155 77.8015 1.27155H84.9538C86.49 1.27155 87.7353 2.55243 87.7353 4.13247V12.7153zM75.0197 4.45032H60.6108V4.48363L52.1323 14.1406 57.4088 17.8013 63.8128 10.9105H75.0197V4.45032z"/><path fill="#C3C3C3" d="M78.199 12.715H84.557V25.43H78.199z"/><path fill="#A8A8A8" d="M78.199 12.715H84.557V15.894H78.199z"/><path fill="#E4E4E2" d="M73.749 25.43H89.643V31.788H73.749z"/><path fill="#0C82ED" d="M73.4303 31.7881H89.3244C91.9578 31.7881 94.0926 33.9514 94.0926 36.6199V80.106H68.6621V36.6199C68.6621 33.9514 70.7969 31.7881 73.4303 31.7881Z"/><path fill="#009CF7" d="M51.1468 31.8435C52.3211 32.6174 53.851 32.6174 55.0253 31.8435C56.5783 30.8205 57.0444 28.7721 56.084 27.1904L53.086 22.2517L50.0881 27.1904C49.1277 28.7721 49.5938 30.8205 51.1468 31.8435Z"/><path fill="#63D5EE" d="M40.0528 43.2318C41.8084 43.2318 43.2316 41.8086 43.2316 40.053 43.2316 38.2973 41.8084 36.8741 40.0528 36.8741 38.2972 36.8741 36.874 38.2973 36.874 40.053 36.874 41.8086 38.2972 43.2318 40.0528 43.2318zM25.7482 34.9668C28.3816 34.9668 30.5164 32.832 30.5164 30.1986 30.5164 27.5652 28.3816 25.4304 25.7482 25.4304 23.1148 25.4304 20.98 27.5652 20.98 30.1986 20.98 32.832 23.1148 34.9668 25.7482 34.9668zM67.0729 86.4635C69.7063 86.4635 71.8411 84.3287 71.8411 81.6953 71.8411 79.0619 69.7063 76.9271 67.0729 76.9271 64.4395 76.9271 62.3047 79.0619 62.3047 81.6953 62.3047 84.3287 64.4395 86.4635 67.0729 86.4635z"/><path fill="#6AE4FF" d="M67.3907 84.5563C69.1463 84.5563 70.5695 83.1331 70.5695 81.3775 70.5695 79.6219 69.1463 78.1987 67.3907 78.1987 65.6351 78.1987 64.2119 79.6219 64.2119 81.3775 64.2119 83.1331 65.6351 84.5563 67.3907 84.5563zM25.4303 33.6954C27.1859 33.6954 28.6091 32.2722 28.6091 30.5166 28.6091 28.761 27.1859 27.3378 25.4303 27.3378 23.6747 27.3378 22.2515 28.761 22.2515 30.5166 22.2515 32.2722 23.6747 33.6954 25.4303 33.6954zM39.7349 41.3246C40.6127 41.3246 41.3243 40.613 41.3243 39.7352 41.3243 38.8574 40.6127 38.1458 39.7349 38.1458 38.8571 38.1458 38.1455 38.8574 38.1455 39.7352 38.1455 40.613 38.8571 41.3246 39.7349 41.3246zM57.5436 58.4901C56.8727 58.49 56.2748 58.0653 56.0514 57.43 55.6991 56.4308 54.8742 55.6734 53.8516 55.4105 52.829 55.1476 51.7432 55.4137 50.9561 56.1201 50.5349 56.4988 49.9444 56.623 49.4072 56.446 48.8699 56.269 48.4675 55.8176 48.3516 55.2619 48.2356 54.7062 48.4237 54.1306 48.8449 53.7518 50.4187 52.3382 52.5906 51.8054 54.6361 52.3311 56.6817 52.8567 58.3317 54.3718 59.0358 56.3708 59.2065 56.8572 59.1317 57.3966 58.8352 57.8177 58.5386 58.2389 58.0572 58.4895 57.5436 58.4901z"/><path fill="#009CF7" d="M76.927 45.139H94.72800000000001V67.391H76.927zM77.1393 40.053H75.4439C74.5076 40.053 73.7485 39.3414 73.7485 38.4635 73.7485 37.5857 74.5076 36.8741 75.4439 36.8741H77.1393C78.0756 36.8741 78.8346 37.5857 78.8346 38.4635 78.8346 39.3414 78.0756 40.053 77.1393 40.053zM87.9894 40.053H83.0304C82.1175 40.053 81.3774 39.3414 81.3774 38.4635 81.3774 37.5857 82.1175 36.8741 83.0304 36.8741H87.9894C88.9023 36.8741 89.6423 37.5857 89.6423 38.4635 89.6423 39.3414 88.9023 40.053 87.9894 40.053zM94.3818 75.0199H79.817C78.9233 75.0199 78.1987 74.3083 78.1987 73.4305 78.1987 72.5527 78.9233 71.8411 79.817 71.8411H94.3818C95.2755 71.8411 96.0001 72.5527 96.0001 73.4305 96.0001 74.3083 95.2755 75.0199 94.3818 75.0199zM73.3668 75.0199H68.4079C67.4949 75.0199 66.7549 74.3083 66.7549 73.4305 66.7549 72.5527 67.4949 71.8411 68.4079 71.8411H73.3668C74.2797 71.8411 75.0198 72.5527 75.0198 73.4305 75.0198 74.3083 74.2797 75.0199 73.3668 75.0199z"/><path fill="#C3C3C3" d="M71.841 5.086H75.02V11.443999999999999H71.841z"/><path fill="#E8C8B3" d="M55.311 65.4834C55.174 65.7724 55.0066 66.0384 54.8132 66.2749 54.2249 66.9904 53.4268 67.3918 52.5949 67.3907H40.8366C40.4037 67.3907 40.0527 66.9637 40.0527 66.437 40.0527 65.9104 40.4037 65.4834 40.8366 65.4834H55.311zM59.1256 71.8411C58.9835 72.13 58.81 72.3961 58.6094 72.6326 57.9993 73.3481 57.1718 73.7495 56.3092 73.7483H40.8656C40.4166 73.7483 40.0527 73.3214 40.0527 72.7947 40.0527 72.268 40.4166 71.8411 40.8656 71.8411L59.1256 71.8411zM55.9469 78.1987C55.8048 78.4877 55.6313 78.7538 55.4307 78.9903 54.8206 79.7057 53.9931 80.1071 53.1304 80.106H36.874V78.1987L55.9469 78.1987zM52.7682 84.5563C52.6261 84.8452 52.4526 85.1113 52.252 85.3478 51.6419 86.0633 50.8143 86.4647 49.9517 86.4636H33.6953V84.5563L52.7682 84.5563z"/><path fill="#F5D3BD" d="M43.2316 76.9271C41.476 76.9271 40.0528 78.3762 40.0528 80.1637C40.0528 78.3762 38.6296 76.9271 36.874 76.9271C35.1184 76.9271 33.6952 78.3762 33.6952 80.1637V81.782C33.6952 79.9945 32.272 78.5454 30.5164 78.5454C28.7608 78.5454 27.3376 79.9945 27.3376 81.782V83.4003C27.3376 81.6128 25.9144 80.1637 24.1588 80.1637C22.4032 80.1637 20.98 81.6128 20.98 83.4003V91.4918C20.98 93.2794 22.4032 94.7284 24.1588 94.7284C25.9144 94.7284 27.3376 93.2794 27.3376 91.4918V89.8735C27.3376 91.6611 28.7608 93.1101 30.5164 93.1101C32.272 93.1101 33.6952 91.6611 33.6952 89.8735V88.2552C33.6952 90.0428 35.1184 91.4918 36.874 91.4918C38.6296 91.4918 40.0528 90.0428 40.0528 88.2552V86.6369C40.0528 88.4245 41.476 89.8735 43.2316 89.8735C44.9872 89.8735 46.4104 88.4245 46.4104 86.6369V80.1637C46.4104 78.3762 44.9872 76.9271 43.2316 76.9271Z"/><path fill="#000" fill-rule="evenodd" d="M1.09755 78.2837L10.3694 81.3696L14.0537 85.0492C15.3857 86.3803 17.0665 87.3094 18.9032 87.7299C19.021 87.7567 19.1415 87.7702 19.2624 87.7699V91.1904C19.2614 93.3276 20.6735 95.2088 22.728 95.8073C24.7824 96.4058 26.9858 95.5779 28.1357 93.7754C30.3621 95.0323 33.1843 94.3277 34.5565 92.1723C36.7829 93.4293 39.6051 92.7247 40.9773 90.5693C42.2157 91.268 43.7003 91.3834 45.0322 90.8847C46.3641 90.3859 47.4066 89.324 47.8796 87.9843H49.7611C51.3563 87.9844 52.848 87.1955 53.7444 85.8777C54.6409 84.56 54.8257 82.8844 54.238 81.4034C55.5601 81.0436 56.6661 80.1383 57.2789 78.9142C57.8918 77.6902 57.9534 76.2634 57.4484 74.9912C59.0507 74.5567 60.3153 73.3276 60.7936 71.7398C61.2719 70.152 60.8963 68.4301 59.8 67.1848C63.2577 64.5443 64.8775 60.1472 63.9578 55.8984C63.038 51.6496 59.7442 48.3133 55.5031 47.3348C51.2621 46.3564 46.8366 47.9117 44.1439 51.327C42.9245 50.6219 41.54 50.2514 40.1309 50.2532C40.0515 50.254 39.9722 50.2607 39.8938 50.2732L39.8856 50.2555C39.8617 50.2033 39.8379 50.1514 39.8121 50.0999C38.6218 47.7245 35.9069 46.5318 33.3492 47.2605C28.5285 48.6304 24.1487 51.2314 20.6414 54.8071L2.1616 48.0075C1.66904 47.8258 1.11861 47.8961 0.687724 48.1958C0.256842 48.4955 1.98997e-06 48.9868 0 49.5112V76.763C3.51568e-05 77.453 0.442131 78.0655 1.09755 78.2837ZM25.6831 91.1904C25.6831 92.0758 24.9645 92.7935 24.078 92.7935C23.1914 92.7935 22.4728 92.0758 22.4728 91.1904V83.1752C22.4728 82.2899 23.1914 81.5722 24.078 81.5722C24.9645 81.5722 25.6831 82.2899 25.6831 83.1752V91.1904ZM30.4987 91.1904C31.3853 91.1904 32.1039 90.4727 32.1039 89.5874V81.5722C32.1039 80.6868 31.3853 79.9691 30.4987 79.9691C29.6122 79.9691 28.8935 80.6868 28.8935 81.5722V89.5874C28.8935 90.4727 29.6122 91.1904 30.4987 91.1904ZM38.5247 87.9843C38.5247 88.8697 37.8061 89.5874 36.9195 89.5874C36.033 89.5874 35.3143 88.8697 35.3143 87.9843V79.9691C35.3143 79.0838 36.033 78.3661 36.9195 78.3661C37.8061 78.3661 38.5247 79.0838 38.5247 79.9691V87.9843ZM41.7351 86.3813C41.7361 87.2662 42.4542 87.9834 43.3403 87.9843C44.2264 87.9834 44.9445 87.2662 44.9455 86.3813V79.9691C44.9455 79.0838 44.2268 78.3661 43.3403 78.3661C42.4538 78.3661 41.7351 79.0838 41.7351 79.9691V86.3813ZM49.7611 84.7783H48.1559V81.5722H49.7611C50.6476 81.5722 51.3663 82.2899 51.3663 83.1752C51.3663 84.0605 50.6476 84.7783 49.7611 84.7783ZM40.3213 53.4683C40.2734 53.7553 40.2032 54.0381 40.1113 54.3141C39.6512 55.7053 38.653 56.8548 37.3391 57.5064C36.5152 57.919 35.7672 58.4678 35.1265 59.1295H52.9715C54.3896 59.1231 55.7379 59.744 56.6537 60.8253C57.5696 61.9066 57.959 63.3374 57.7175 64.7329C60.3668 62.7927 61.5646 59.4358 60.7408 56.2596C59.917 53.0834 57.2379 50.7293 53.9785 50.3175C50.7191 49.9058 47.5374 51.5194 45.9476 54.3907C45.707 54.8243 45.279 55.1224 44.7884 55.198C44.2978 55.2737 43.7998 55.1184 43.4394 54.7774C42.594 53.9769 41.4855 53.5115 40.3213 53.4683ZM34.2308 50.3428C35.3818 50.0142 36.5939 50.6149 37.0279 51.729C37.4619 52.8431 36.9749 54.104 35.9042 54.6385C33.7065 55.7415 31.9231 57.5224 30.8186 59.7172L30.6693 60.0152C30.4204 60.512 30.4467 61.102 30.739 61.5747C31.0312 62.0474 31.5477 62.3353 32.1039 62.3356H52.9715C53.858 62.3356 54.5767 63.0533 54.5767 63.9386C54.5767 64.824 53.858 65.5417 52.9715 65.5417H41.7351C40.8486 65.5417 40.1299 66.2594 40.1299 67.1447C40.1299 68.0301 40.8486 68.7478 41.7351 68.7478H56.1819C57.0684 68.7478 57.7871 69.4655 57.7871 70.3508C57.7871 71.2362 57.0684 71.9539 56.1819 71.9539H41.7351C40.8486 71.9539 40.1299 72.6716 40.1299 73.5569C40.1299 74.4423 40.8486 75.16 41.7351 75.16H43.321C42.1564 75.1653 41.0174 75.5933 40.1299 76.3885C39.0784 75.4457 37.6648 75.0126 36.2648 75.2045C34.8648 75.3963 33.6202 76.1936 32.8618 77.3844C30.6354 76.1274 27.8132 76.832 26.441 78.9874C24.9506 78.1467 23.1252 78.1599 21.6472 79.0221C20.1692 79.8844 19.2611 81.4658 19.2624 83.1752V84.5099C18.1521 84.1922 17.141 83.5979 16.3238 82.7829L12.3711 78.8354C12.1948 78.6594 11.98 78.5269 11.7436 78.4482L3.21039 75.6076V59.4818L17.3423 62.3045C17.9195 62.4198 18.5135 62.2104 18.8904 61.7589L21.5189 58.6081C24.8252 54.6364 29.2562 51.7554 34.2308 50.3428ZM44.5339 75.3095C44.1474 75.2109 43.755 75.1618 43.3652 75.16H52.9715C53.858 75.16 54.5767 75.8777 54.5767 76.763C54.5767 77.6484 53.858 78.3661 52.9715 78.3661H47.8798C47.3454 76.8533 46.0902 75.7067 44.5339 75.3095ZM17.0362 58.9736L18.362 57.3846L3.21039 51.8102V56.2121L17.0362 58.9736Z" clip-rule="evenodd"/><path fill="#000" fill-rule="evenodd" d="M91.2142 25.5229V30.5105C94.0294 31.2414 95.9963 33.7807 95.9999 36.6892V79.7592C95.9999 80.6402 95.2857 81.3544 94.4047 81.3544H73.6665C73.6665 84.8783 70.8097 87.7351 67.2855 87.7351C63.7614 87.7351 60.9046 84.8783 60.9046 81.3544C60.9046 77.8304 63.7614 74.9736 67.2855 74.9736V36.6892C67.2892 33.7807 69.256 31.2414 72.0713 30.5105V25.5229C72.0713 24.6419 72.7855 23.9278 73.6665 23.9278H76.857V14.3567H75.2618C74.3807 14.3567 73.6665 13.6425 73.6665 12.7615H64.7862L58.8778 19.065C58.3385 19.6402 57.4599 19.7351 56.8102 19.2884L51.5527 15.6727C51.1758 15.4137 50.9282 15.0055 50.8727 14.5517C50.8171 14.0979 50.959 13.642 51.2623 13.2998L59.5514 3.9405C59.8427 3.47366 60.3543 3.19009 60.9046 3.19037H73.8336C74.3707 1.3045 76.0925 0.00277745 78.0534 0H85.232C87.6537 0.00274714 89.6162 1.96516 89.6189 4.38675V12.7615C89.6189 13.6425 88.9047 14.3567 88.0237 14.3567H86.4285V23.9278H89.6189C90.5 23.9278 91.2142 24.6419 91.2142 25.5229ZM78.4522 65.4025H92.8094V46.2603H78.4522V65.4025ZM76.857 4.38675C76.8576 3.72628 77.3929 3.19103 78.0534 3.19037H85.232C85.8925 3.19103 86.4278 3.72628 86.4285 4.38675V11.1663H76.857V4.38675ZM62.9313 10.0752C63.2329 9.75356 63.6541 9.57109 64.0951 9.5711H73.6665V6.38073H61.6519L54.8458 14.0643L57.4876 15.8811L62.9313 10.0752ZM80.0475 14.3567H83.238V23.9278H80.0475V14.3567ZM88.0237 27.1181H75.2618V30.3085H88.0237V27.1181ZM67.2855 84.5447C65.5235 84.5447 64.095 83.1164 64.095 81.3544C64.095 79.5924 65.5235 78.164 67.2855 78.164C69.0476 78.164 70.476 79.5924 70.476 81.3544C70.4739 83.1155 69.0467 84.5426 67.2855 84.5447ZM70.476 75.832C71.4433 76.3932 72.2475 77.197 72.8091 78.164H92.8094V74.9736H80.0475C79.1665 74.9736 78.4522 74.2594 78.4522 73.3784C78.4522 72.4975 79.1665 71.7833 80.0475 71.7833H92.8094V68.5929H76.857C75.976 68.5929 75.2618 67.8787 75.2618 66.9977V44.6651C75.2618 43.7841 75.976 43.07 76.857 43.07H92.8094V36.6892C92.8073 34.9281 91.3801 33.5009 89.6189 33.4989H73.6665C71.9053 33.5009 70.4781 34.9281 70.476 36.6892V71.7833H73.6665C74.5475 71.7833 75.2618 72.4975 75.2618 73.3784C75.2618 74.2594 74.5475 74.9736 73.6665 74.9736H70.476V75.832Z" clip-rule="evenodd"/><path fill="#000" fill-rule="evenodd" d="M56.2789 32.8738C54.5573 34.5772 51.9274 34.8139 49.9489 33.4435 47.6881 31.8836 47.0098 28.7544 48.4091 26.3402L51.4171 21.1384C51.7019 20.6458 52.215 20.3444 52.7687 20.3444 53.3223 20.3444 53.8354 20.6458 54.1202 21.1384L57.1282 26.34C58.3533 28.4558 58.0005 31.1704 56.2789 32.8738zM52.7687 25.1587L51.1125 28.0232V28.023C50.6267 28.864 50.799 29.9463 51.5195 30.5806 52.2401 31.215 53.2972 31.215 54.0178 30.5806 54.7384 29.9463 54.9106 28.864 54.4248 28.023L52.7687 25.1587zM44.5032 39.7351C44.5032 42.3685 42.3684 44.5033 39.735 44.5033 37.1028 44.5004 34.9698 42.3673 34.9668 39.7351 34.9668 37.1017 37.1016 34.9669 39.735 34.9669 42.3684 34.9669 44.5032 37.1017 44.5032 39.7351zM41.3244 39.7351C41.3244 38.8573 40.6128 38.1457 39.735 38.1457 38.8576 38.1467 38.1466 38.8577 38.1456 39.7351 38.1456 40.6129 38.8572 41.3245 39.735 41.3245 40.6128 41.3245 41.3244 40.6129 41.3244 39.7351zM31.788 30.5166C31.788 34.0278 28.9416 36.8742 25.4304 36.8742 21.9208 36.8702 19.0767 34.0261 19.0728 30.5166 19.0728 27.0053 21.9192 24.1589 25.4304 24.1589 28.9416 24.1589 31.788 27.0053 31.788 30.5166zM28.6092 30.5166C28.6092 28.7609 27.186 27.3377 25.4304 27.3377 23.6756 27.3398 22.2536 28.7618 22.2516 30.5166 22.2516 32.2722 23.6748 33.6954 25.4304 33.6954 27.186 33.6954 28.6092 32.2722 28.6092 30.5166z" clip-rule="evenodd"/><path fill="#000" d="M50.9559 56.12C51.7429 55.4137 52.8287 55.1476 53.8512 55.4105 54.8737 55.6734 55.6985 56.4307 56.0508 57.4299 56.342 58.2575 57.2461 58.6913 58.0702 58.3988 58.8943 58.1063 59.3262 57.1983 59.0349 56.3707 58.3309 54.3717 56.681 52.8567 54.6356 52.3311 52.5902 51.8054 50.4185 52.3382 48.8449 53.7518 48.4236 54.1305 48.2356 54.7062 48.3516 55.2619 48.4675 55.8176 48.8699 56.269 49.4071 56.446 49.9443 56.623 50.5347 56.4987 50.9559 56.12zM77.1393 40.053C78.0756 40.053 78.8346 39.3414 78.8346 38.4635 78.8346 37.5857 78.0756 36.8741 77.1393 36.8741H75.4439C74.5076 36.8741 73.7485 37.5857 73.7485 38.4635 73.7485 39.3414 74.5076 40.053 75.4439 40.053H77.1393zM83.0304 40.053H87.9894C88.9023 40.053 89.6423 39.3414 89.6423 38.4635 89.6423 37.5857 88.9023 36.8741 87.9894 36.8741H83.0304C82.1175 36.8741 81.3774 37.5857 81.3774 38.4635 81.3774 39.3414 82.1175 40.053 83.0304 40.053z"/></svg>